<svg width="371" height="373" viewBox="0 0 371 373" fill="none" xmlns="http://www.w3.org/2000/svg">
<g filter="url(#filter0_i_1_20)">
<circle cx="181" cy="247" r="109" fill="url(#paint0_linear_1_20)" fill-opacity="0.4"/>
</g>
<g filter="url(#filter1_b_1_20)">
<circle cx="181" cy="192" r="181" fill="white" fill-opacity="0.3"/>
<circle cx="181" cy="192" r="180.5" stroke="#5FE07C" stroke-opacity="0.2"/>
</g>
<g filter="url(#filter2_b_1_20)">
<circle cx="181" cy="192" r="151" fill="white" fill-opacity="0.3"/>
<circle cx="181" cy="192" r="150.5" stroke="#5FE07C" stroke-opacity="0.2"/>
</g>
<g filter="url(#filter3_i_1_20)">
<circle cx="315.439" cy="67.1059" r="12.2667" fill="url(#paint1_linear_1_20)"/>
</g>
<g filter="url(#filter4_i_1_20)">
<circle cx="353.682" cy="259.765" r="17.3176" fill="url(#paint2_linear_1_20)"/>
</g>
<g filter="url(#filter5_i_1_20)">
<circle cx="43.4078" cy="12.9882" r="12.9882" fill="url(#paint3_linear_1_20)"/>
</g>
<g filter="url(#filter6_i_1_20)">
<circle cx="49.1804" cy="135.655" r="7.21569" fill="url(#paint4_linear_1_20)"/>
</g>
<g filter="url(#filter7_i_1_20)">
<circle cx="14.5451" cy="242.447" r="11.5451" fill="url(#paint5_linear_1_20)"/>
</g>
<g filter="url(#filter8_i_1_20)">
<path fill-rule="evenodd" clip-rule="evenodd" d="M283.54 68.4658C284.042 68.9682 284.373 69.6166 284.485 70.3182C285.871 86.706 284.458 103.21 280.306 119.124L233.32 71.6327C249.092 67.5237 265.449 66.1331 281.688 67.5207C282.389 67.6326 283.038 67.9634 283.54 68.4658ZM163.719 117.101L118.217 189.837C117.81 190.484 117.635 191.25 117.721 192.01C117.807 192.769 118.148 193.477 118.689 194.017L157.989 233.317C158.301 233.636 158.674 233.889 159.084 234.063C159.495 234.236 159.936 234.327 160.382 234.329C161.018 234.332 161.641 234.144 162.169 233.789L235.141 188.085C255.711 172.683 270.836 151.123 278.317 126.539L225.905 73.6888C201.076 81.1543 179.285 96.3664 163.719 117.101Z" fill="url(#paint6_linear_1_20)"/>
</g>
<g filter="url(#filter9_bdiii_1_20)">
<path d="M-nan -nanL124.824 221.992L107.971 238.845C107.655 239.158 107.405 239.531 107.233 239.942C107.062 240.353 106.974 240.793 106.974 241.238C106.974 241.683 107.062 242.124 107.233 242.534C107.405 242.945 107.655 243.318 107.971 243.631C108.286 243.944 108.66 244.191 109.07 244.358C109.481 244.526 109.921 244.611 110.364 244.609C111.249 244.605 112.096 244.254 112.724 243.631L129.576 226.778C129.892 226.465 130.143 226.092 130.314 225.682C130.485 225.271 130.573 224.83 130.573 224.385C130.573 223.94 130.485 223.5 130.314 223.089C130.143 222.678 129.892 222.306 129.576 221.992C128.945 221.365 128.091 221.012 127.2 221.012C126.31 221.012 125.455 221.365 124.824 221.992L-nan -nanZ" fill="url(#paint7_linear_1_20)" fill-opacity="0.21"/>
<path d="M-nan -nanL124.824 221.992L107.971 238.845C107.655 239.158 107.405 239.531 107.233 239.942C107.062 240.353 106.974 240.793 106.974 241.238C106.974 241.683 107.062 242.124 107.233 242.534C107.405 242.945 107.655 243.318 107.971 243.631C108.286 243.944 108.66 244.191 109.07 244.358C109.481 244.526 109.921 244.611 110.364 244.609C111.249 244.605 112.096 244.254 112.724 243.631L129.576 226.778C129.892 226.465 130.143 226.092 130.314 225.682C130.485 225.271 130.573 224.83 130.573 224.385C130.573 223.94 130.485 223.5 130.314 223.089C130.143 222.678 129.892 222.306 129.576 221.992C128.945 221.365 128.091 221.012 127.2 221.012C126.31 221.012 125.455 221.365 124.824 221.992L-nan -nanZ" fill="#D7FFC2" fill-opacity="0.1"/>
</g>
<g filter="url(#filter10_bdii_1_20)">
<path fill-rule="evenodd" clip-rule="evenodd" d="M123.633 191.4C123.659 191.374 123.663 191.333 123.643 191.303C123.624 191.274 123.626 191.236 123.649 191.21C123.944 190.877 124.302 190.606 124.703 190.412C125.121 190.21 125.577 190.096 126.041 190.078C126.505 190.061 126.968 190.139 127.4 190.308C127.833 190.478 128.226 190.735 128.554 191.063C128.883 191.392 129.14 191.784 129.309 192.217C129.479 192.65 129.557 193.112 129.539 193.577C129.521 194.041 129.407 194.496 129.205 194.914C129.003 195.333 128.716 195.704 128.363 196.007L120.847 203.523C120.25 204.187 119.413 204.587 118.521 204.635C117.855 204.632 117.204 204.432 116.651 204.059C116.098 203.687 115.669 203.158 115.416 202.542C115.164 201.925 115.1 201.247 115.232 200.593C115.365 199.94 115.689 199.341 116.162 198.872L123.633 191.4ZM87.5459 258.631L110.735 235.34C111.37 234.692 112.236 234.323 113.143 234.314C114.05 234.304 114.924 234.655 115.572 235.29C116.22 235.925 116.589 236.791 116.599 237.698C116.608 238.605 116.257 239.479 115.623 240.127L92.2984 263.417C91.6637 264.047 90.8047 264.4 89.9103 264.396C89.0158 264.393 88.1593 264.035 87.5291 263.4C86.8989 262.766 86.5466 261.906 86.5498 261.012C86.5529 260.118 86.9113 259.261 87.5459 258.631ZM137.335 210.997C137.356 211.027 137.352 211.068 137.326 211.094L129.854 218.565C129.381 219.035 129.057 219.634 128.924 220.287C128.792 220.941 128.856 221.619 129.108 222.235C129.361 222.852 129.79 223.381 130.343 223.753C130.896 224.126 131.547 224.326 132.213 224.329C133.105 224.281 133.942 223.881 134.539 223.217L142.055 215.7C142.408 215.398 142.695 215.026 142.897 214.608C143.099 214.19 143.213 213.735 143.231 213.271C143.249 212.806 143.171 212.343 143.001 211.911C142.832 211.478 142.575 211.086 142.246 210.757C141.918 210.429 141.525 210.172 141.092 210.002C140.66 209.833 140.197 209.754 139.733 209.772C139.269 209.79 138.813 209.904 138.395 210.106C137.994 210.3 137.636 210.571 137.341 210.904C137.318 210.93 137.316 210.968 137.335 210.997ZM155.183 222.947C155.208 222.922 155.247 222.918 155.277 222.937C155.306 222.957 155.345 222.953 155.37 222.929C156 222.325 156.841 221.988 157.715 221.992C158.609 221.995 159.466 222.353 160.096 222.988C160.726 223.622 161.079 224.481 161.075 225.376C161.072 226.27 160.714 227.127 160.079 227.757L152.563 235.273C151.935 235.896 151.088 236.247 150.204 236.251C149.76 236.253 149.32 236.168 148.91 236.001C148.499 235.833 148.125 235.586 147.811 235.273C147.495 234.96 147.244 234.587 147.073 234.176C146.902 233.766 146.813 233.325 146.813 232.88C146.813 232.435 146.902 231.995 147.073 231.584C147.244 231.173 147.495 230.8 147.811 230.487L155.183 222.947ZM133.149 245.014L119.296 258.833C118.98 259.147 118.729 259.519 118.558 259.93C118.387 260.341 118.299 260.781 118.299 261.226C118.299 261.671 118.387 262.112 118.558 262.523C118.729 262.933 118.98 263.306 119.296 263.619C119.611 263.932 119.985 264.179 120.395 264.347C120.806 264.514 121.246 264.599 121.689 264.597C122.133 264.599 122.573 264.514 122.983 264.347C123.394 264.179 123.767 263.932 124.082 263.619L137.901 249.767C138.454 249.122 138.742 248.292 138.709 247.444C138.677 246.596 138.325 245.791 137.725 245.191C137.124 244.591 136.32 244.239 135.471 244.206C134.623 244.173 133.794 244.462 133.149 245.014ZM83.1804 230.34L97.0333 216.521C97.6781 215.968 98.5075 215.68 99.3557 215.713C100.204 215.745 101.009 216.097 101.609 216.697C102.209 217.298 102.561 218.102 102.594 218.951C102.626 219.799 102.338 220.628 101.786 221.273L87.9665 235.126C87.6516 235.438 87.2781 235.685 86.8674 235.853C86.4568 236.021 86.017 236.106 85.5734 236.103C85.1299 236.106 84.6901 236.021 84.2795 235.853C83.8688 235.685 83.4953 235.438 83.1804 235.126C82.8644 234.813 82.6137 234.44 82.4426 234.029C82.2715 233.618 82.1834 233.178 82.1834 232.733C82.1834 232.288 82.2715 231.847 82.4426 231.437C82.6137 231.026 82.8644 230.653 83.1804 230.34Z" fill="url(#paint8_linear_1_20)" fill-opacity="0.1"/>
</g>
<g filter="url(#filter11_i_1_20)">
<path fill-rule="evenodd" clip-rule="evenodd" d="M283.54 68.4658C284.042 68.9682 284.373 69.6166 284.485 70.3182C285.871 86.706 284.458 103.21 280.306 119.124L233.32 71.6327C249.092 67.5237 265.449 66.1331 281.688 67.5207C282.389 67.6326 283.038 67.9634 283.54 68.4658ZM163.719 117.101L118.217 189.837C117.81 190.484 117.635 191.25 117.721 192.01C117.807 192.769 118.148 193.477 118.689 194.017L157.989 233.317C158.301 233.636 158.673 233.889 159.084 234.063C159.495 234.236 159.936 234.327 160.382 234.329C161.018 234.332 161.641 234.144 162.169 233.789L235.141 188.085C255.711 172.683 270.836 151.123 278.317 126.539L225.905 73.6888C201.076 81.1543 179.285 96.3664 163.719 117.101Z" fill="url(#paint9_linear_1_20)"/>
</g>
<g filter="url(#filter12_biii_1_20)">
<path d="M176.117 221.422C174.566 222.701 173.949 224.78 174.43 226.732C178.413 242.915 176.294 260.045 168.407 274.813C168.001 275.472 167.834 276.25 167.934 277.016C168.034 277.783 168.394 278.492 168.955 279.025C169.314 279.357 169.741 279.608 170.207 279.758C170.673 279.909 171.166 279.956 171.652 279.897C172.212 279.827 172.746 279.618 173.204 279.287C193.114 265.008 234.582 229.692 228.429 187.132C227.91 183.546 223.688 182.182 220.894 184.487L176.117 221.422Z" fill="url(#paint10_linear_1_20)" fill-opacity="0.09"/>
<path d="M176.117 221.422C174.566 222.701 173.949 224.78 174.43 226.732C178.413 242.915 176.294 260.045 168.407 274.813C168.001 275.472 167.834 276.25 167.934 277.016C168.034 277.783 168.394 278.492 168.955 279.025C169.314 279.357 169.741 279.608 170.207 279.758C170.673 279.909 171.166 279.956 171.652 279.897C172.212 279.827 172.746 279.618 173.204 279.287C193.114 265.008 234.582 229.692 228.429 187.132C227.91 183.546 223.688 182.182 220.894 184.487L176.117 221.422Z" fill="#506943" fill-opacity="0.05"/>
</g>
<g filter="url(#filter13_biii_1_20)">
<path d="M132.067 179.373C130.752 180.894 128.659 181.463 126.719 180.937C110.632 176.583 93.4578 178.307 78.5113 185.853C77.8438 186.243 77.0624 186.392 76.2982 186.275C75.5339 186.157 74.8333 185.781 74.3137 185.208C73.9895 184.841 73.7491 184.408 73.6092 183.939C73.4693 183.47 73.4332 182.976 73.5035 182.492C73.5864 181.933 73.8084 181.404 74.1489 180.954C88.883 161.377 125.143 120.733 167.551 127.864C171.123 128.465 172.39 132.717 170.021 135.458L132.067 179.373Z" fill="url(#paint11_linear_1_20)" fill-opacity="0.09"/>
<path d="M132.067 179.373C130.752 180.894 128.659 181.463 126.719 180.937C110.632 176.583 93.4578 178.307 78.5113 185.853C77.8438 186.243 77.0624 186.392 76.2982 186.275C75.5339 186.157 74.8333 185.781 74.3137 185.208C73.9895 184.841 73.7491 184.408 73.6092 183.939C73.4693 183.47 73.4332 182.976 73.5035 182.492C73.5864 181.933 73.8084 181.404 74.1489 180.954C88.883 161.377 125.143 120.733 167.551 127.864C171.123 128.465 172.39 132.717 170.021 135.458L132.067 179.373Z" fill="#506943" fill-opacity="0.05"/>
</g>
<g filter="url(#filter14_bdiii_1_20)">
<path d="M-nan -nanL124.824 221.992L107.971 238.845C107.655 239.158 107.405 239.531 107.233 239.942C107.062 240.353 106.974 240.793 106.974 241.238C106.974 241.683 107.062 242.124 107.233 242.534C107.405 242.945 107.655 243.318 107.971 243.631C108.286 243.944 108.66 244.191 109.07 244.358C109.481 244.526 109.921 244.611 110.364 244.609C111.249 244.605 112.096 244.254 112.724 243.631L129.576 226.778C129.892 226.465 130.143 226.092 130.314 225.682C130.485 225.271 130.573 224.83 130.573 224.385C130.573 223.94 130.485 223.5 130.314 223.089C130.143 222.678 129.892 222.306 129.576 221.992C128.945 221.365 128.091 221.012 127.2 221.012C126.31 221.012 125.455 221.365 124.824 221.992L-nan -nanZ" fill="url(#paint12_linear_1_20)" fill-opacity="0.21"/>
<path d="M-nan -nanL124.824 221.992L107.971 238.845C107.655 239.158 107.405 239.531 107.233 239.942C107.062 240.353 106.974 240.793 106.974 241.238C106.974 241.683 107.062 242.124 107.233 242.534C107.405 242.945 107.655 243.318 107.971 243.631C108.286 243.944 108.66 244.191 109.07 244.358C109.481 244.526 109.921 244.611 110.364 244.609C111.249 244.605 112.096 244.254 112.724 243.631L129.576 226.778C129.892 226.465 130.143 226.092 130.314 225.682C130.485 225.271 130.573 224.83 130.573 224.385C130.573 223.94 130.485 223.5 130.314 223.089C130.143 222.678 129.892 222.306 129.576 221.992C128.945 221.365 128.091 221.012 127.2 221.012C126.31 221.012 125.455 221.365 124.824 221.992L-nan -nanZ" fill="#D7FFC2" fill-opacity="0.1"/>
</g>
<g filter="url(#filter15_bdii_1_20)">
<path fill-rule="evenodd" clip-rule="evenodd" d="M123.633 191.4C123.659 191.374 123.663 191.333 123.643 191.303C123.624 191.274 123.626 191.236 123.649 191.21C123.944 190.877 124.302 190.606 124.703 190.412C125.121 190.21 125.577 190.096 126.041 190.078C126.505 190.061 126.968 190.139 127.4 190.308C127.833 190.478 128.226 190.735 128.554 191.063C128.883 191.392 129.14 191.784 129.309 192.217C129.479 192.65 129.557 193.112 129.539 193.577C129.521 194.041 129.407 194.496 129.205 194.914C129.003 195.333 128.716 195.704 128.363 196.007L120.847 203.523C120.25 204.187 119.413 204.587 118.521 204.635C117.855 204.632 117.204 204.432 116.651 204.059C116.098 203.687 115.669 203.158 115.416 202.542C115.164 201.925 115.1 201.247 115.232 200.593C115.365 199.94 115.689 199.341 116.162 198.872L123.633 191.4ZM87.5459 258.631L110.735 235.34C111.37 234.692 112.236 234.323 113.143 234.314C114.05 234.304 114.924 234.655 115.572 235.29C116.22 235.925 116.589 236.791 116.599 237.698C116.608 238.605 116.257 239.479 115.623 240.127L92.2984 263.417C91.6637 264.047 90.8047 264.4 89.9103 264.396C89.0158 264.393 88.1593 264.035 87.5291 263.4C86.8989 262.766 86.5466 261.906 86.5498 261.012C86.5529 260.118 86.9113 259.261 87.5459 258.631ZM137.335 210.997C137.356 211.027 137.352 211.068 137.326 211.094L129.854 218.565C129.381 219.035 129.057 219.634 128.924 220.287C128.792 220.941 128.856 221.619 129.108 222.235C129.361 222.852 129.79 223.381 130.343 223.753C130.896 224.126 131.547 224.326 132.213 224.329C133.105 224.281 133.942 223.881 134.539 223.217L142.055 215.7C142.408 215.398 142.695 215.026 142.897 214.608C143.099 214.19 143.213 213.735 143.231 213.271C143.249 212.806 143.171 212.343 143.001 211.911C142.832 211.478 142.575 211.086 142.246 210.757C141.918 210.429 141.525 210.172 141.092 210.002C140.66 209.833 140.197 209.754 139.733 209.772C139.269 209.79 138.813 209.904 138.395 210.106C137.994 210.3 137.636 210.571 137.341 210.904C137.318 210.93 137.316 210.968 137.335 210.997ZM155.183 222.947C155.208 222.922 155.247 222.918 155.277 222.937C155.306 222.957 155.345 222.953 155.37 222.929C156 222.325 156.841 221.988 157.715 221.992C158.609 221.995 159.466 222.353 160.096 222.988C160.726 223.622 161.079 224.481 161.075 225.376C161.072 226.27 160.714 227.127 160.079 227.757L152.563 235.273C151.935 235.896 151.088 236.247 150.204 236.251C149.76 236.253 149.32 236.168 148.91 236.001C148.499 235.833 148.125 235.586 147.811 235.273C147.495 234.96 147.244 234.587 147.073 234.176C146.902 233.766 146.813 233.325 146.813 232.88C146.813 232.435 146.902 231.995 147.073 231.584C147.244 231.173 147.495 230.8 147.811 230.487L155.183 222.947ZM133.149 245.014L119.296 258.833C118.98 259.147 118.729 259.519 118.558 259.93C118.387 260.341 118.299 260.781 118.299 261.226C118.299 261.671 118.387 262.112 118.558 262.523C118.729 262.933 118.98 263.306 119.296 263.619C119.611 263.932 119.985 264.179 120.395 264.347C120.806 264.514 121.246 264.599 121.689 264.597C122.133 264.599 122.573 264.514 122.983 264.347C123.394 264.179 123.767 263.932 124.082 263.619L137.901 249.767C138.454 249.122 138.742 248.292 138.709 247.444C138.677 246.596 138.325 245.791 137.725 245.191C137.124 244.591 136.32 244.239 135.471 244.206C134.623 244.173 133.794 244.462 133.149 245.014ZM83.1804 230.34L97.0333 216.521C97.6781 215.968 98.5075 215.68 99.3557 215.713C100.204 215.745 101.009 216.097 101.609 216.697C102.209 217.298 102.561 218.102 102.594 218.951C102.626 219.799 102.338 220.628 101.786 221.273L87.9665 235.126C87.6516 235.438 87.2781 235.685 86.8674 235.853C86.4568 236.021 86.017 236.106 85.5734 236.103C85.1299 236.106 84.6901 236.021 84.2795 235.853C83.8688 235.685 83.4953 235.438 83.1804 235.126C82.8644 234.813 82.6137 234.44 82.4426 234.029C82.2715 233.618 82.1834 233.178 82.1834 232.733C82.1834 232.288 82.2715 231.847 82.4426 231.437C82.6137 231.026 82.8644 230.653 83.1804 230.34Z" fill="url(#paint13_linear_1_20)" fill-opacity="0.1"/>
</g>
<g filter="url(#filter16_bdii_1_20)">
<circle cx="221.356" cy="127.251" r="25.4583" fill="url(#paint14_linear_1_20)" fill-opacity="0.21"/>
<circle cx="221.356" cy="127.251" r="25.4583" fill="#D8FFC5" fill-opacity="0.26"/>
</g>
<defs>
<filter id="filter0_i_1_20" x="72" y="135" width="227" height="221" filterUnits="userSpaceOnUse" color-interpolation-filters="sRGB">
<feFlood flood-opacity="0" result="BackgroundImageFix"/>
<feBlend mode="normal" in="SourceGraphic" in2="BackgroundImageFix" result="shape"/>
<feColorMatrix in="SourceAlpha" type="matrix" values="0 0 0 0 0 0 0 0 0 0 0 0 0 0 0 0 0 0 127 0" result="hardAlpha"/>
<feOffset dx="9" dy="-3"/>
<feGaussianBlur stdDeviation="10"/>
<feComposite in2="hardAlpha" operator="arithmetic" k2="-1" k3="1"/>
<feColorMatrix type="matrix" values="0 0 0 0 0 0 0 0 0 0 0 0 0 0 0 0 0 0 0.17 0"/>
<feBlend mode="normal" in2="shape" result="effect1_innerShadow_1_20"/>
</filter>
<filter id="filter1_b_1_20" x="-54" y="-43" width="470" height="470" filterUnits="userSpaceOnUse" color-interpolation-filters="sRGB">
<feFlood flood-opacity="0" result="BackgroundImageFix"/>
<feGaussianBlur in="BackgroundImage" stdDeviation="27"/>
<feComposite in2="SourceAlpha" operator="in" result="effect1_backgroundBlur_1_20"/>
<feBlend mode="normal" in="SourceGraphic" in2="effect1_backgroundBlur_1_20" result="shape"/>
</filter>
<filter id="filter2_b_1_20" x="-24" y="-13" width="410" height="410" filterUnits="userSpaceOnUse" color-interpolation-filters="sRGB">
<feFlood flood-opacity="0" result="BackgroundImageFix"/>
<feGaussianBlur in="BackgroundImage" stdDeviation="27"/>
<feComposite in2="SourceAlpha" operator="in" result="effect1_backgroundBlur_1_20"/>
<feBlend mode="normal" in="SourceGraphic" in2="effect1_backgroundBlur_1_20" result="shape"/>
</filter>
<filter id="filter3_i_1_20" x="303.173" y="51.8392" width="33.5333" height="27.5333" filterUnits="userSpaceOnUse" color-interpolation-filters="sRGB">
<feFlood flood-opacity="0" result="BackgroundImageFix"/>
<feBlend mode="normal" in="SourceGraphic" in2="BackgroundImageFix" result="shape"/>
<feColorMatrix in="SourceAlpha" type="matrix" values="0 0 0 0 0 0 0 0 0 0 0 0 0 0 0 0 0 0 127 0" result="hardAlpha"/>
<feOffset dx="9" dy="-3"/>
<feGaussianBlur stdDeviation="10"/>
<feComposite in2="hardAlpha" operator="arithmetic" k2="-1" k3="1"/>
<feColorMatrix type="matrix" values="0 0 0 0 0 0 0 0 0 0 0 0 0 0 0 0 0 0 0.17 0"/>
<feBlend mode="normal" in2="shape" result="effect1_innerShadow_1_20"/>
</filter>
<filter id="filter4_i_1_20" x="336.365" y="239.447" width="43.6353" height="37.6353" filterUnits="userSpaceOnUse" color-interpolation-filters="sRGB">
<feFlood flood-opacity="0" result="BackgroundImageFix"/>
<feBlend mode="normal" in="SourceGraphic" in2="BackgroundImageFix" result="shape"/>
<feColorMatrix in="SourceAlpha" type="matrix" values="0 0 0 0 0 0 0 0 0 0 0 0 0 0 0 0 0 0 127 0" result="hardAlpha"/>
<feOffset dx="9" dy="-3"/>
<feGaussianBlur stdDeviation="10"/>
<feComposite in2="hardAlpha" operator="arithmetic" k2="-1" k3="1"/>
<feColorMatrix type="matrix" values="0 0 0 0 0 0 0 0 0 0 0 0 0 0 0 0 0 0 0.17 0"/>
<feBlend mode="normal" in2="shape" result="effect1_innerShadow_1_20"/>
</filter>
<filter id="filter5_i_1_20" x="30.4196" y="-3" width="34.9765" height="28.9765" filterUnits="userSpaceOnUse" color-interpolation-filters="sRGB">
<feFlood flood-opacity="0" result="BackgroundImageFix"/>
<feBlend mode="normal" in="SourceGraphic" in2="BackgroundImageFix" result="shape"/>
<feColorMatrix in="SourceAlpha" type="matrix" values="0 0 0 0 0 0 0 0 0 0 0 0 0 0 0 0 0 0 127 0" result="hardAlpha"/>
<feOffset dx="9" dy="-3"/>
<feGaussianBlur stdDeviation="10"/>
<feComposite in2="hardAlpha" operator="arithmetic" k2="-1" k3="1"/>
<feColorMatrix type="matrix" values="0 0 0 0 0 0 0 0 0 0 0 0 0 0 0 0 0 0 0.17 0"/>
<feBlend mode="normal" in2="shape" result="effect1_innerShadow_1_20"/>
</filter>
<filter id="filter6_i_1_20" x="41.9647" y="125.439" width="23.4314" height="17.4314" filterUnits="userSpaceOnUse" color-interpolation-filters="sRGB">
<feFlood flood-opacity="0" result="BackgroundImageFix"/>
<feBlend mode="normal" in="SourceGraphic" in2="BackgroundImageFix" result="shape"/>
<feColorMatrix in="SourceAlpha" type="matrix" values="0 0 0 0 0 0 0 0 0 0 0 0 0 0 0 0 0 0 127 0" result="hardAlpha"/>
<feOffset dx="9" dy="-3"/>
<feGaussianBlur stdDeviation="10"/>
<feComposite in2="hardAlpha" operator="arithmetic" k2="-1" k3="1"/>
<feColorMatrix type="matrix" values="0 0 0 0 0 0 0 0 0 0 0 0 0 0 0 0 0 0 0.17 0"/>
<feBlend mode="normal" in2="shape" result="effect1_innerShadow_1_20"/>
</filter>
<filter id="filter7_i_1_20" x="3" y="227.902" width="32.0902" height="26.0902" filterUnits="userSpaceOnUse" color-interpolation-filters="sRGB">
<feFlood flood-opacity="0" result="BackgroundImageFix"/>
<feBlend mode="normal" in="SourceGraphic" in2="BackgroundImageFix" result="shape"/>
<feColorMatrix in="SourceAlpha" type="matrix" values="0 0 0 0 0 0 0 0 0 0 0 0 0 0 0 0 0 0 127 0" result="hardAlpha"/>
<feOffset dx="9" dy="-3"/>
<feGaussianBlur stdDeviation="10"/>
<feComposite in2="hardAlpha" operator="arithmetic" k2="-1" k3="1"/>
<feColorMatrix type="matrix" values="0 0 0 0 0 0 0 0 0 0 0 0 0 0 0 0 0 0 0.17 0"/>
<feBlend mode="normal" in2="shape" result="effect1_innerShadow_1_20"/>
</filter>
<filter id="filter8_i_1_20" x="117.7" y="64" width="176.301" height="170.329" filterUnits="userSpaceOnUse" color-interpolation-filters="sRGB">
<feFlood flood-opacity="0" result="BackgroundImageFix"/>
<feBlend mode="normal" in="SourceGraphic" in2="BackgroundImageFix" result="shape"/>
<feColorMatrix in="SourceAlpha" type="matrix" values="0 0 0 0 0 0 0 0 0 0 0 0 0 0 0 0 0 0 127 0" result="hardAlpha"/>
<feOffset dx="9" dy="-3"/>
<feGaussianBlur stdDeviation="10"/>
<feComposite in2="hardAlpha" operator="arithmetic" k2="-1" k3="1"/>
<feColorMatrix type="matrix" values="0 0 0 0 0 0 0 0 0 0 0 0 0 0 0 0 0 0 0.17 0"/>
<feBlend mode="normal" in2="shape" result="effect1_innerShadow_1_20"/>
</filter>
<filter id="filter9_bdiii_1_20" x="86.9742" y="201.012" width="72.5991" height="68.5965" filterUnits="userSpaceOnUse" color-interpolation-filters="sRGB">
<feFlood flood-opacity="0" result="BackgroundImageFix"/>
<feGaussianBlur in="BackgroundImage" stdDeviation="10"/>
<feComposite in2="SourceAlpha" operator="in" result="effect1_backgroundBlur_1_20"/>
<feColorMatrix in="SourceAlpha" type="matrix" values="0 0 0 0 0 0 0 0 0 0 0 0 0 0 0 0 0 0 127 0" result="hardAlpha"/>
<feOffset dx="9" dy="5"/>
<feGaussianBlur stdDeviation="10"/>
<feColorMatrix type="matrix" values="0 0 0 0 0.0690278 0 0 0 0 0.295833 0 0 0 0 0.11166 0 0 0 0.08 0"/>
<feBlend mode="normal" in2="effect1_backgroundBlur_1_20" result="effect2_dropShadow_1_20"/>
<feBlend mode="normal" in="SourceGraphic" in2="effect2_dropShadow_1_20" result="shape"/>
<feColorMatrix in="SourceAlpha" type="matrix" values="0 0 0 0 0 0 0 0 0 0 0 0 0 0 0 0 0 0 127 0" result="hardAlpha"/>
<feOffset dx="-10" dy="10"/>
<feGaussianBlur stdDeviation="5"/>
<feComposite in2="hardAlpha" operator="arithmetic" k2="-1" k3="1"/>
<feColorMatrix type="matrix" values="0 0 0 0 1 0 0 0 0 1 0 0 0 0 1 0 0 0 0.15 0"/>
<feBlend mode="normal" in2="shape" result="effect3_innerShadow_1_20"/>
<feColorMatrix in="SourceAlpha" type="matrix" values="0 0 0 0 0 0 0 0 0 0 0 0 0 0 0 0 0 0 127 0" result="hardAlpha"/>
<feOffset dy="-10"/>
<feGaussianBlur stdDeviation="5"/>
<feComposite in2="hardAlpha" operator="arithmetic" k2="-1" k3="1"/>
<feColorMatrix type="matrix" values="0 0 0 0 0.156863 0 0 0 0 0.67451 0 0 0 0 0.25098 0 0 0 0.3 0"/>
<feBlend mode="normal" in2="effect3_innerShadow_1_20" result="effect4_innerShadow_1_20"/>
<feColorMatrix in="SourceAlpha" type="matrix" values="0 0 0 0 0 0 0 0 0 0 0 0 0 0 0 0 0 0 127 0" result="hardAlpha"/>
<feOffset dx="-3" dy="6"/>
<feGaussianBlur stdDeviation="7.5"/>
<feComposite in2="hardAlpha" operator="arithmetic" k2="-1" k3="1"/>
<feColorMatrix type="matrix" values="0 0 0 0 0.0770313 0 0 0 0 0.6375 0 0 0 0 0.178935 0 0 0 0.09 0"/>
<feBlend mode="normal" in2="effect4_innerShadow_1_20" result="effect5_innerShadow_1_20"/>
</filter>
<filter id="filter10_bdii_1_20" x="62.1834" y="170.076" width="127.892" height="119.521" filterUnits="userSpaceOnUse" color-interpolation-filters="sRGB">
<feFlood flood-opacity="0" result="BackgroundImageFix"/>
<feGaussianBlur in="BackgroundImage" stdDeviation="10"/>
<feComposite in2="SourceAlpha" operator="in" result="effect1_backgroundBlur_1_20"/>
<feColorMatrix in="SourceAlpha" type="matrix" values="0 0 0 0 0 0 0 0 0 0 0 0 0 0 0 0 0 0 127 0" result="hardAlpha"/>
<feOffset dx="9" dy="5"/>
<feGaussianBlur stdDeviation="10"/>
<feColorMatrix type="matrix" values="0 0 0 0 0.0690278 0 0 0 0 0.295833 0 0 0 0 0.11166 0 0 0 0.08 0"/>
<feBlend mode="normal" in2="effect1_backgroundBlur_1_20" result="effect2_dropShadow_1_20"/>
<feBlend mode="normal" in="SourceGraphic" in2="effect2_dropShadow_1_20" result="shape"/>
<feColorMatrix in="SourceAlpha" type="matrix" values="0 0 0 0 0 0 0 0 0 0 0 0 0 0 0 0 0 0 127 0" result="hardAlpha"/>
<feOffset/>
<feGaussianBlur stdDeviation="5"/>
<feComposite in2="hardAlpha" operator="arithmetic" k2="-1" k3="1"/>
<feColorMatrix type="matrix" values="0 0 0 0 0.156863 0 0 0 0 0.67451 0 0 0 0 0.25098 0 0 0 0.2 0"/>
<feBlend mode="normal" in2="shape" result="effect3_innerShadow_1_20"/>
<feColorMatrix in="SourceAlpha" type="matrix" values="0 0 0 0 0 0 0 0 0 0 0 0 0 0 0 0 0 0 127 0" result="hardAlpha"/>
<feOffset dx="-3" dy="6"/>
<feGaussianBlur stdDeviation="7.5"/>
<feComposite in2="hardAlpha" operator="arithmetic" k2="-1" k3="1"/>
<feColorMatrix type="matrix" values="0 0 0 0 0.0770313 0 0 0 0 0.6375 0 0 0 0 0.178935 0 0 0 0.09 0"/>
<feBlend mode="normal" in2="effect3_innerShadow_1_20" result="effect4_innerShadow_1_20"/>
</filter>
<filter id="filter11_i_1_20" x="117.7" y="64" width="176.301" height="170.329" filterUnits="userSpaceOnUse" color-interpolation-filters="sRGB">
<feFlood flood-opacity="0" result="BackgroundImageFix"/>
<feBlend mode="normal" in="SourceGraphic" in2="BackgroundImageFix" result="shape"/>
<feColorMatrix in="SourceAlpha" type="matrix" values="0 0 0 0 0 0 0 0 0 0 0 0 0 0 0 0 0 0 127 0" result="hardAlpha"/>
<feOffset dx="9" dy="-3"/>
<feGaussianBlur stdDeviation="10"/>
<feComposite in2="hardAlpha" operator="arithmetic" k2="-1" k3="1"/>
<feColorMatrix type="matrix" values="0 0 0 0 0 0 0 0 0 0 0 0 0 0 0 0 0 0 0.17 0"/>
<feBlend mode="normal" in2="shape" result="effect1_innerShadow_1_20"/>
</filter>
<filter id="filter12_biii_1_20" x="147.906" y="163.351" width="101.139" height="136.571" filterUnits="userSpaceOnUse" color-interpolation-filters="sRGB">
<feFlood flood-opacity="0" result="BackgroundImageFix"/>
<feGaussianBlur in="BackgroundImage" stdDeviation="10"/>
<feComposite in2="SourceAlpha" operator="in" result="effect1_backgroundBlur_1_20"/>
<feBlend mode="normal" in="SourceGraphic" in2="effect1_backgroundBlur_1_20" result="shape"/>
<feColorMatrix in="SourceAlpha" type="matrix" values="0 0 0 0 0 0 0 0 0 0 0 0 0 0 0 0 0 0 127 0" result="hardAlpha"/>
<feOffset dx="-10" dy="10"/>
<feGaussianBlur stdDeviation="5"/>
<feComposite in2="hardAlpha" operator="arithmetic" k2="-1" k3="1"/>
<feColorMatrix type="matrix" values="0 0 0 0 1 0 0 0 0 1 0 0 0 0 1 0 0 0 0.15 0"/>
<feBlend mode="normal" in2="shape" result="effect2_innerShadow_1_20"/>
<feColorMatrix in="SourceAlpha" type="matrix" values="0 0 0 0 0 0 0 0 0 0 0 0 0 0 0 0 0 0 127 0" result="hardAlpha"/>
<feOffset dy="-10"/>
<feGaussianBlur stdDeviation="5"/>
<feComposite in2="hardAlpha" operator="arithmetic" k2="-1" k3="1"/>
<feColorMatrix type="matrix" values="0 0 0 0 0.156863 0 0 0 0 0.67451 0 0 0 0 0.25098 0 0 0 0.05 0"/>
<feBlend mode="normal" in2="effect2_innerShadow_1_20" result="effect3_innerShadow_1_20"/>
<feColorMatrix in="SourceAlpha" type="matrix" values="0 0 0 0 0 0 0 0 0 0 0 0 0 0 0 0 0 0 127 0" result="hardAlpha"/>
<feOffset dx="-3" dy="6"/>
<feGaussianBlur stdDeviation="7.5"/>
<feComposite in2="hardAlpha" operator="arithmetic" k2="-1" k3="1"/>
<feColorMatrix type="matrix" values="0 0 0 0 0.0770313 0 0 0 0 0.6375 0 0 0 0 0.178935 0 0 0 0.2 0"/>
<feBlend mode="normal" in2="effect3_innerShadow_1_20" result="effect4_innerShadow_1_20"/>
</filter>
<filter id="filter13_biii_1_20" x="53.4686" y="107.035" width="137.761" height="99.2791" filterUnits="userSpaceOnUse" color-interpolation-filters="sRGB">
<feFlood flood-opacity="0" result="BackgroundImageFix"/>
<feGaussianBlur in="BackgroundImage" stdDeviation="10"/>
<feComposite in2="SourceAlpha" operator="in" result="effect1_backgroundBlur_1_20"/>
<feBlend mode="normal" in="SourceGraphic" in2="effect1_backgroundBlur_1_20" result="shape"/>
<feColorMatrix in="SourceAlpha" type="matrix" values="0 0 0 0 0 0 0 0 0 0 0 0 0 0 0 0 0 0 127 0" result="hardAlpha"/>
<feOffset dx="-10" dy="10"/>
<feGaussianBlur stdDeviation="5"/>
<feComposite in2="hardAlpha" operator="arithmetic" k2="-1" k3="1"/>
<feColorMatrix type="matrix" values="0 0 0 0 1 0 0 0 0 1 0 0 0 0 1 0 0 0 0.15 0"/>
<feBlend mode="normal" in2="shape" result="effect2_innerShadow_1_20"/>
<feColorMatrix in="SourceAlpha" type="matrix" values="0 0 0 0 0 0 0 0 0 0 0 0 0 0 0 0 0 0 127 0" result="hardAlpha"/>
<feOffset dy="-10"/>
<feGaussianBlur stdDeviation="5"/>
<feComposite in2="hardAlpha" operator="arithmetic" k2="-1" k3="1"/>
<feColorMatrix type="matrix" values="0 0 0 0 0.156863 0 0 0 0 0.67451 0 0 0 0 0.25098 0 0 0 0.05 0"/>
<feBlend mode="normal" in2="effect2_innerShadow_1_20" result="effect3_innerShadow_1_20"/>
<feColorMatrix in="SourceAlpha" type="matrix" values="0 0 0 0 0 0 0 0 0 0 0 0 0 0 0 0 0 0 127 0" result="hardAlpha"/>
<feOffset dx="-3" dy="6"/>
<feGaussianBlur stdDeviation="7.5"/>
<feComposite in2="hardAlpha" operator="arithmetic" k2="-1" k3="1"/>
<feColorMatrix type="matrix" values="0 0 0 0 0.0770313 0 0 0 0 0.6375 0 0 0 0 0.178935 0 0 0 0.2 0"/>
<feBlend mode="normal" in2="effect3_innerShadow_1_20" result="effect4_innerShadow_1_20"/>
</filter>
<filter id="filter14_bdiii_1_20" x="86.9742" y="201.012" width="72.5991" height="68.5965" filterUnits="userSpaceOnUse" color-interpolation-filters="sRGB">
<feFlood flood-opacity="0" result="BackgroundImageFix"/>
<feGaussianBlur in="BackgroundImage" stdDeviation="10"/>
<feComposite in2="SourceAlpha" operator="in" result="effect1_backgroundBlur_1_20"/>
<feColorMatrix in="SourceAlpha" type="matrix" values="0 0 0 0 0 0 0 0 0 0 0 0 0 0 0 0 0 0 127 0" result="hardAlpha"/>
<feOffset dx="9" dy="5"/>
<feGaussianBlur stdDeviation="10"/>
<feColorMatrix type="matrix" values="0 0 0 0 0.0690278 0 0 0 0 0.295833 0 0 0 0 0.11166 0 0 0 0.08 0"/>
<feBlend mode="normal" in2="effect1_backgroundBlur_1_20" result="effect2_dropShadow_1_20"/>
<feBlend mode="normal" in="SourceGraphic" in2="effect2_dropShadow_1_20" result="shape"/>
<feColorMatrix in="SourceAlpha" type="matrix" values="0 0 0 0 0 0 0 0 0 0 0 0 0 0 0 0 0 0 127 0" result="hardAlpha"/>
<feOffset dx="-10" dy="10"/>
<feGaussianBlur stdDeviation="5"/>
<feComposite in2="hardAlpha" operator="arithmetic" k2="-1" k3="1"/>
<feColorMatrix type="matrix" values="0 0 0 0 1 0 0 0 0 1 0 0 0 0 1 0 0 0 0.15 0"/>
<feBlend mode="normal" in2="shape" result="effect3_innerShadow_1_20"/>
<feColorMatrix in="SourceAlpha" type="matrix" values="0 0 0 0 0 0 0 0 0 0 0 0 0 0 0 0 0 0 127 0" result="hardAlpha"/>
<feOffset dy="-10"/>
<feGaussianBlur stdDeviation="5"/>
<feComposite in2="hardAlpha" operator="arithmetic" k2="-1" k3="1"/>
<feColorMatrix type="matrix" values="0 0 0 0 0.156863 0 0 0 0 0.67451 0 0 0 0 0.25098 0 0 0 0.3 0"/>
<feBlend mode="normal" in2="effect3_innerShadow_1_20" result="effect4_innerShadow_1_20"/>
<feColorMatrix in="SourceAlpha" type="matrix" values="0 0 0 0 0 0 0 0 0 0 0 0 0 0 0 0 0 0 127 0" result="hardAlpha"/>
<feOffset dx="-3" dy="6"/>
<feGaussianBlur stdDeviation="7.5"/>
<feComposite in2="hardAlpha" operator="arithmetic" k2="-1" k3="1"/>
<feColorMatrix type="matrix" values="0 0 0 0 0.0770313 0 0 0 0 0.6375 0 0 0 0 0.178935 0 0 0 0.09 0"/>
<feBlend mode="normal" in2="effect4_innerShadow_1_20" result="effect5_innerShadow_1_20"/>
</filter>
<filter id="filter15_bdii_1_20" x="62.1834" y="170.076" width="127.892" height="119.521" filterUnits="userSpaceOnUse" color-interpolation-filters="sRGB">
<feFlood flood-opacity="0" result="BackgroundImageFix"/>
<feGaussianBlur in="BackgroundImage" stdDeviation="10"/>
<feComposite in2="SourceAlpha" operator="in" result="effect1_backgroundBlur_1_20"/>
<feColorMatrix in="SourceAlpha" type="matrix" values="0 0 0 0 0 0 0 0 0 0 0 0 0 0 0 0 0 0 127 0" result="hardAlpha"/>
<feOffset dx="9" dy="5"/>
<feGaussianBlur stdDeviation="10"/>
<feColorMatrix type="matrix" values="0 0 0 0 0.0690278 0 0 0 0 0.295833 0 0 0 0 0.11166 0 0 0 0.08 0"/>
<feBlend mode="normal" in2="effect1_backgroundBlur_1_20" result="effect2_dropShadow_1_20"/>
<feBlend mode="normal" in="SourceGraphic" in2="effect2_dropShadow_1_20" result="shape"/>
<feColorMatrix in="SourceAlpha" type="matrix" values="0 0 0 0 0 0 0 0 0 0 0 0 0 0 0 0 0 0 127 0" result="hardAlpha"/>
<feOffset/>
<feGaussianBlur stdDeviation="5"/>
<feComposite in2="hardAlpha" operator="arithmetic" k2="-1" k3="1"/>
<feColorMatrix type="matrix" values="0 0 0 0 0.156863 0 0 0 0 0.67451 0 0 0 0 0.25098 0 0 0 0.2 0"/>
<feBlend mode="normal" in2="shape" result="effect3_innerShadow_1_20"/>
<feColorMatrix in="SourceAlpha" type="matrix" values="0 0 0 0 0 0 0 0 0 0 0 0 0 0 0 0 0 0 127 0" result="hardAlpha"/>
<feOffset dx="-3" dy="6"/>
<feGaussianBlur stdDeviation="7.5"/>
<feComposite in2="hardAlpha" operator="arithmetic" k2="-1" k3="1"/>
<feColorMatrix type="matrix" values="0 0 0 0 0.0770313 0 0 0 0 0.6375 0 0 0 0 0.178935 0 0 0 0.09 0"/>
<feBlend mode="normal" in2="effect3_innerShadow_1_20" result="effect4_innerShadow_1_20"/>
</filter>
<filter id="filter16_bdii_1_20" x="175.897" y="81.793" width="99.9166" height="95.9166" filterUnits="userSpaceOnUse" color-interpolation-filters="sRGB">
<feFlood flood-opacity="0" result="BackgroundImageFix"/>
<feGaussianBlur in="BackgroundImage" stdDeviation="10"/>
<feComposite in2="SourceAlpha" operator="in" result="effect1_backgroundBlur_1_20"/>
<feColorMatrix in="SourceAlpha" type="matrix" values="0 0 0 0 0 0 0 0 0 0 0 0 0 0 0 0 0 0 127 0" result="hardAlpha"/>
<feOffset dx="9" dy="5"/>
<feGaussianBlur stdDeviation="10"/>
<feColorMatrix type="matrix" values="0 0 0 0 0.0690278 0 0 0 0 0.295833 0 0 0 0 0.11166 0 0 0 0.08 0"/>
<feBlend mode="normal" in2="effect1_backgroundBlur_1_20" result="effect2_dropShadow_1_20"/>
<feBlend mode="normal" in="SourceGraphic" in2="effect2_dropShadow_1_20" result="shape"/>
<feColorMatrix in="SourceAlpha" type="matrix" values="0 0 0 0 0 0 0 0 0 0 0 0 0 0 0 0 0 0 127 0" result="hardAlpha"/>
<feOffset dx="-10" dy="10"/>
<feGaussianBlur stdDeviation="5"/>
<feComposite in2="hardAlpha" operator="arithmetic" k2="-1" k3="1"/>
<feColorMatrix type="matrix" values="0 0 0 0 1 0 0 0 0 1 0 0 0 0 1 0 0 0 0.15 0"/>
<feBlend mode="normal" in2="shape" result="effect3_innerShadow_1_20"/>
<feColorMatrix in="SourceAlpha" type="matrix" values="0 0 0 0 0 0 0 0 0 0 0 0 0 0 0 0 0 0 127 0" result="hardAlpha"/>
<feOffset dx="3" dy="-6"/>
<feGaussianBlur stdDeviation="4.5"/>
<feComposite in2="hardAlpha" operator="arithmetic" k2="-1" k3="1"/>
<feColorMatrix type="matrix" values="0 0 0 0 0.0199306 0 0 0 0 0.341667 0 0 0 0 0.0521041 0 0 0 0.05 0"/>
<feBlend mode="normal" in2="effect3_innerShadow_1_20" result="effect4_innerShadow_1_20"/>
</filter>
<linearGradient id="paint0_linear_1_20" x1="265.935" y1="138" x2="211.771" y2="381.501" gradientUnits="userSpaceOnUse">
<stop stop-color="#9BE15D"/>
<stop offset="1" stop-color="#00E3AE"/>
</linearGradient>
<linearGradient id="paint1_linear_1_20" x1="324.998" y1="54.8392" x2="318.902" y2="82.2424" gradientUnits="userSpaceOnUse">
<stop stop-color="#9BE15D"/>
<stop offset="1" stop-color="#00E3AE"/>
</linearGradient>
<linearGradient id="paint2_linear_1_20" x1="367.177" y1="242.447" x2="358.571" y2="281.134" gradientUnits="userSpaceOnUse">
<stop stop-color="#9BE15D"/>
<stop offset="1" stop-color="#00E3AE"/>
</linearGradient>
<linearGradient id="paint3_linear_1_20" x1="53.5285" y1="-5.91698e-07" x2="47.0744" y2="29.0151" gradientUnits="userSpaceOnUse">
<stop stop-color="#9BE15D"/>
<stop offset="1" stop-color="#00E3AE"/>
</linearGradient>
<linearGradient id="paint4_linear_1_20" x1="54.803" y1="128.439" x2="51.2174" y2="144.559" gradientUnits="userSpaceOnUse">
<stop stop-color="#9BE15D"/>
<stop offset="1" stop-color="#00E3AE"/>
</linearGradient>
<linearGradient id="paint5_linear_1_20" x1="23.5413" y1="230.902" x2="17.8043" y2="256.693" gradientUnits="userSpaceOnUse">
<stop stop-color="#9BE15D"/>
<stop offset="1" stop-color="#00E3AE"/>
</linearGradient>
<linearGradient id="paint6_linear_1_20" x1="266.533" y1="67" x2="224.952" y2="253.899" gradientUnits="userSpaceOnUse">
<stop stop-color="#9BE15D"/>
<stop offset="1" stop-color="#00E3AE"/>
</linearGradient>
<linearGradient id="paint7_linear_1_20" x1="127.968" y1="221.012" x2="122.106" y2="247.369" gradientUnits="userSpaceOnUse">
<stop stop-color="#9BE15D"/>
<stop offset="1" stop-color="#00E3AE"/>
</linearGradient>
<linearGradient id="paint8_linear_1_20" x1="100.343" y1="215.71" x2="95.2803" y2="238.491" gradientUnits="userSpaceOnUse">
<stop stop-color="#9BE15D"/>
<stop offset="1" stop-color="#00E3AE"/>
</linearGradient>
<linearGradient id="paint9_linear_1_20" x1="266.532" y1="67" x2="224.952" y2="253.899" gradientUnits="userSpaceOnUse">
<stop stop-color="#9BE15D"/>
<stop offset="1" stop-color="#00E3AE"/>
</linearGradient>
<linearGradient id="paint10_linear_1_20" x1="219.604" y1="180.522" x2="204.058" y2="283.416" gradientUnits="userSpaceOnUse">
<stop stop-color="#9BE15D"/>
<stop offset="1" stop-color="#00E3AE"/>
</linearGradient>
<linearGradient id="paint11_linear_1_20" x1="173.955" y1="136.839" x2="70.7314" y2="150.013" gradientUnits="userSpaceOnUse">
<stop stop-color="#9BE15D"/>
<stop offset="1" stop-color="#00E3AE"/>
</linearGradient>
<linearGradient id="paint12_linear_1_20" x1="127.968" y1="221.012" x2="122.106" y2="247.369" gradientUnits="userSpaceOnUse">
<stop stop-color="#9BE15D"/>
<stop offset="1" stop-color="#00E3AE"/>
</linearGradient>
<linearGradient id="paint13_linear_1_20" x1="100.343" y1="215.71" x2="95.2803" y2="238.491" gradientUnits="userSpaceOnUse">
<stop stop-color="#9BE15D"/>
<stop offset="1" stop-color="#00E3AE"/>
</linearGradient>
<linearGradient id="paint14_linear_1_20" x1="241.193" y1="101.793" x2="228.542" y2="158.666" gradientUnits="userSpaceOnUse">
<stop stop-color="#9BE15D"/>
<stop offset="1" stop-color="#00E3AE"/>
</linearGradient>
</defs>
</svg>
