<svg width="1000" height="696" viewBox="0 0 1000 696" fill="none" xmlns="http://www.w3.org/2000/svg">
<g clip-path="url(#clip0_1_2)">
<rect width="1000" height="696" fill="#D6EADF"/>
<path d="M232 780.188C469.876 669.561 528.8 552.162 757.947 651.5C954.359 758.74 1089.66 769.092 1166.05 752.16C1207.95 740.42 1302.81 654.703 1345 613.313" stroke="#E3FFEC" stroke-width="90"/>
<path d="M209 799.127C446.876 629.934 505.8 450.382 734.947 602.31C931.359 766.324 1066.66 825.023 1143.05 799.127C1184.95 781.171 1279.81 650.076 1322 586.772" stroke="#E3FFEC" stroke-width="90"/>
<g filter="url(#filter0_d_1_2)">
<path d="M-137 742.127C100.876 572.934 159.8 393.382 388.947 545.31C585.359 709.324 720.665 768.023 797.047 742.127C838.948 724.171 933.808 593.076 976 529.772" stroke="#EFFFF4" stroke-width="90"/>
</g>
<g filter="url(#filter1_d_1_2)">
<path d="M-111 813.42C126.876 652.687 185.8 482.113 414.947 626.445C611.359 782.258 746.665 838.022 823.047 813.42C864.948 796.363 959.808 671.822 1002 611.683" stroke="#EFFFF4" stroke-width="90"/>
</g>
<g filter="url(#filter2_d_1_2)">
<path d="M-106 901.42C131.876 740.687 190.8 570.113 419.947 714.445C616.359 870.258 751.665 926.022 828.047 901.42C869.948 884.363 964.808 759.822 1007 699.683" stroke="#EFFFF4" stroke-width="90" stroke-linejoin="bevel"/>
</g>
<g filter="url(#filter3_d_1_2)">
<path d="M557 750.127C794.876 580.934 853.8 401.382 1082.95 553.31C1279.36 717.324 1414.66 776.023 1491.05 750.127C1532.95 732.171 1627.81 601.076 1670 537.772" stroke="#EFFFF4" stroke-width="90"/>
</g>
<path d="M573 820.127C810.876 650.934 869.8 471.382 1098.95 623.31C1295.36 787.324 1430.66 846.023 1507.05 820.127C1548.95 802.171 1643.81 671.076 1686 607.772" stroke="#EFFFF4" stroke-width="90"/>
<g filter="url(#filter4_d_1_2)">
<path d="M745 914.127C982.876 744.934 1041.8 565.382 1270.95 717.31C1467.36 881.324 1602.66 940.023 1679.05 914.127C1720.95 896.171 1815.81 765.076 1858 701.772" stroke="#EFFFF4" stroke-width="90"/>
</g>
<path d="M296.197 476C503.124 796.088 803.238 612.233 927.429 480.295" stroke="#EFFFF4" stroke-width="40"/>
</g>
<defs>
<filter id="filter0_d_1_2" x="-167.082" y="442.999" width="1184.53" height="358.012" filterUnits="userSpaceOnUse" color-interpolation-filters="sRGB">
<feFlood flood-opacity="0" result="BackgroundImageFix"/>
<feColorMatrix in="SourceAlpha" type="matrix" values="0 0 0 0 0 0 0 0 0 0 0 0 0 0 0 0 0 0 127 0" result="hardAlpha"/>
<feOffset dy="4"/>
<feGaussianBlur stdDeviation="2"/>
<feComposite in2="hardAlpha" operator="out"/>
<feColorMatrix type="matrix" values="0 0 0 0 0 0 0 0 0 0 0 0 0 0 0 0 0 0 0.25 0"/>
<feBlend mode="normal" in2="BackgroundImageFix" result="effect1_dropShadow_1_2"/>
<feBlend mode="normal" in="SourceGraphic" in2="effect1_dropShadow_1_2" result="shape"/>
</filter>
<filter id="filter1_d_1_2" x="-140.194" y="526.999" width="1183.03" height="345.008" filterUnits="userSpaceOnUse" color-interpolation-filters="sRGB">
<feFlood flood-opacity="0" result="BackgroundImageFix"/>
<feColorMatrix in="SourceAlpha" type="matrix" values="0 0 0 0 0 0 0 0 0 0 0 0 0 0 0 0 0 0 127 0" result="hardAlpha"/>
<feOffset dy="4"/>
<feGaussianBlur stdDeviation="2"/>
<feComposite in2="hardAlpha" operator="out"/>
<feColorMatrix type="matrix" values="0 0 0 0 0 0 0 0 0 0 0 0 0 0 0 0 0 0 0.25 0"/>
<feBlend mode="normal" in2="BackgroundImageFix" result="effect1_dropShadow_1_2"/>
<feBlend mode="normal" in="SourceGraphic" in2="effect1_dropShadow_1_2" result="shape"/>
</filter>
<filter id="filter2_d_1_2" x="-135.194" y="614.999" width="1183.03" height="345.008" filterUnits="userSpaceOnUse" color-interpolation-filters="sRGB">
<feFlood flood-opacity="0" result="BackgroundImageFix"/>
<feColorMatrix in="SourceAlpha" type="matrix" values="0 0 0 0 0 0 0 0 0 0 0 0 0 0 0 0 0 0 127 0" result="hardAlpha"/>
<feOffset dy="4"/>
<feGaussianBlur stdDeviation="2"/>
<feComposite in2="hardAlpha" operator="out"/>
<feColorMatrix type="matrix" values="0 0 0 0 0 0 0 0 0 0 0 0 0 0 0 0 0 0 0.25 0"/>
<feBlend mode="normal" in2="BackgroundImageFix" result="effect1_dropShadow_1_2"/>
<feBlend mode="normal" in="SourceGraphic" in2="effect1_dropShadow_1_2" result="shape"/>
</filter>
<filter id="filter3_d_1_2" x="526.918" y="450.999" width="1184.53" height="358.012" filterUnits="userSpaceOnUse" color-interpolation-filters="sRGB">
<feFlood flood-opacity="0" result="BackgroundImageFix"/>
<feColorMatrix in="SourceAlpha" type="matrix" values="0 0 0 0 0 0 0 0 0 0 0 0 0 0 0 0 0 0 127 0" result="hardAlpha"/>
<feOffset dy="4"/>
<feGaussianBlur stdDeviation="2"/>
<feComposite in2="hardAlpha" operator="out"/>
<feColorMatrix type="matrix" values="0 0 0 0 0 0 0 0 0 0 0 0 0 0 0 0 0 0 0.25 0"/>
<feBlend mode="normal" in2="BackgroundImageFix" result="effect1_dropShadow_1_2"/>
<feBlend mode="normal" in="SourceGraphic" in2="effect1_dropShadow_1_2" result="shape"/>
</filter>
<filter id="filter4_d_1_2" x="714.918" y="614.999" width="1184.53" height="358.012" filterUnits="userSpaceOnUse" color-interpolation-filters="sRGB">
<feFlood flood-opacity="0" result="BackgroundImageFix"/>
<feColorMatrix in="SourceAlpha" type="matrix" values="0 0 0 0 0 0 0 0 0 0 0 0 0 0 0 0 0 0 127 0" result="hardAlpha"/>
<feOffset dy="4"/>
<feGaussianBlur stdDeviation="2"/>
<feComposite in2="hardAlpha" operator="out"/>
<feColorMatrix type="matrix" values="0 0 0 0 0 0 0 0 0 0 0 0 0 0 0 0 0 0 0.25 0"/>
<feBlend mode="normal" in2="BackgroundImageFix" result="effect1_dropShadow_1_2"/>
<feBlend mode="normal" in="SourceGraphic" in2="effect1_dropShadow_1_2" result="shape"/>
</filter>
<clipPath id="clip0_1_2">
<rect width="1000" height="696" fill="white"/>
</clipPath>
</defs>
</svg>
