<svg xmlns="http://www.w3.org/2000/svg" width="295" height="306" fill="none" viewBox="0 0 295 306"><g filter="url(#filter0_f_302_2)"><circle cx="147.509" cy="147.968" r="57.138" fill="url(#paint0_radial_302_2)"/></g><g filter="url(#filter1_bdiiii_302_2)"><mask id="path-2-inside-1_302_2" fill="#fff"><path fill-rule="evenodd" d="M147.733 32.9695C110.937 32.9695 81 62.9206 81 99.7358C81 100.317 81 100.899 81.0173 101.48C81.498 125.929 92.1516 140.094 102.455 153.792L102.456 153.794C112.445 167.074 122.764 180.793 123.369 203.314H172.115C172.719 180.794 183.038 167.076 193.028 153.795C203.333 140.097 213.988 125.931 214.466 101.503C214.466 101.229 214.472 100.913 214.478 100.598C214.484 100.311 214.49 100.023 214.49 99.7358C214.49 62.9212 184.542 32.9695 147.733 32.9695ZM123.396 207.503H172.086V218.365H123.396V207.503ZM126.681 233.442H123.396V222.555H172.086V233.442H168.801H126.681ZM166.508 237.631C165.173 244.618 157.262 250 147.732 250C138.212 250 130.308 244.618 128.974 237.631H166.508Z" clip-rule="evenodd"/></mask><path fill="url(#paint1_linear_302_2)" fill-opacity=".1" fill-rule="evenodd" d="M147.733 32.9695C110.937 32.9695 81 62.9206 81 99.7358C81 100.317 81 100.899 81.0173 101.48C81.498 125.929 92.1516 140.094 102.455 153.792L102.456 153.794C112.445 167.074 122.764 180.793 123.369 203.314H172.115C172.719 180.794 183.038 167.076 193.028 153.795C203.333 140.097 213.988 125.931 214.466 101.503C214.466 101.229 214.472 100.913 214.478 100.598C214.484 100.311 214.49 100.023 214.49 99.7358C214.49 62.9212 184.542 32.9695 147.733 32.9695ZM123.396 207.503H172.086V218.365H123.396V207.503ZM126.681 233.442H123.396V222.555H172.086V233.442H168.801H126.681ZM166.508 237.631C165.173 244.618 157.262 250 147.732 250C138.212 250 130.308 244.618 128.974 237.631H166.508Z" clip-rule="evenodd"/><path fill="#31B8A0" d="M81.0173 101.48L88.0159 101.343L88.0152 101.307L88.0142 101.272L81.0173 101.48ZM102.455 153.792L96.8604 158L96.8669 158.008L96.8734 158.017L102.455 153.792ZM102.456 153.794L108.05 149.586L108.044 149.578L108.037 149.569L102.456 153.794ZM123.369 203.314L116.371 203.502L116.554 210.314H123.369V203.314ZM172.115 203.314V210.314H178.929L179.112 203.502L172.115 203.314ZM193.028 153.795L198.622 158.003L198.622 158.003L193.028 153.795ZM214.466 101.503L221.465 101.64L221.466 101.565L221.466 101.49L214.466 101.503ZM214.478 100.598L207.48 100.457L207.48 100.458L214.478 100.598ZM172.086 207.503H179.086V200.503H172.086V207.503ZM123.396 207.503V200.503H116.396V207.503H123.396ZM172.086 218.365V225.365H179.086V218.365H172.086ZM123.396 218.365H116.396V225.365H123.396V218.365ZM123.396 233.442H116.396V240.442H123.396V233.442ZM123.396 222.555V215.555H116.396V222.555H123.396ZM172.086 222.555H179.086V215.555H172.086V222.555ZM172.086 233.442V240.442H179.086V233.442H172.086ZM166.508 237.631L173.384 238.945L174.972 230.631H166.508V237.631ZM128.974 237.631V230.631H120.511L122.098 238.944L128.974 237.631ZM88 99.7358C88 66.7834 114.806 39.9695 147.733 39.9695V25.9695C107.067 25.9695 74 59.0579 74 99.7358H88ZM88.0142 101.272C88.0005 100.813 88 100.335 88 99.7358H74C74 100.3 73.9995 100.986 74.0204 101.688L88.0142 101.272ZM108.049 149.584C97.8131 135.975 88.4493 123.381 88.0159 101.343L74.0186 101.618C74.5468 128.477 86.49 144.212 96.8604 158L108.049 149.584ZM108.037 149.569L108.036 149.567L96.8734 158.017L96.8746 158.019L108.037 149.569ZM130.366 203.126C129.696 178.183 118.052 162.883 108.05 149.586L96.8617 158.001C106.838 171.264 115.832 183.404 116.371 203.502L130.366 203.126ZM172.115 196.314H123.369V210.314H172.115V196.314ZM187.435 149.587C177.431 162.885 165.786 178.184 165.117 203.126L179.112 203.502C179.651 183.405 188.645 171.267 198.622 158.003L187.435 149.587ZM207.467 101.366C207.037 123.382 197.673 135.977 187.434 149.587L198.622 158.003C208.993 144.217 220.939 128.48 221.465 101.64L207.467 101.366ZM207.48 100.458C207.474 100.753 207.465 101.151 207.466 101.516L221.466 101.49C221.466 101.307 221.47 101.073 221.477 100.737L207.48 100.458ZM207.49 99.7358C207.49 99.9414 207.486 100.159 207.48 100.457L221.477 100.738C221.482 100.463 221.49 100.105 221.49 99.7358H207.49ZM147.733 39.9695C180.675 39.9695 207.49 66.7862 207.49 99.7358H221.49C221.49 59.0561 188.409 25.9695 147.733 25.9695V39.9695ZM172.086 200.503H123.396V214.503H172.086V200.503ZM179.086 218.365V207.503H165.086V218.365H179.086ZM123.396 225.365H172.086V211.365H123.396V225.365ZM116.396 207.503V218.365H130.396V207.503H116.396ZM123.396 240.442H126.681V226.442H123.396V240.442ZM116.396 222.555V233.442H130.396V222.555H116.396ZM172.086 215.555H123.396V229.555H172.086V215.555ZM179.086 233.442V222.555H165.086V233.442H179.086ZM168.801 240.442H172.086V226.442H168.801V240.442ZM126.681 240.442H168.801V226.442H126.681V240.442ZM147.732 257C159.284 257 171.197 250.389 173.384 238.945L159.633 236.318C159.149 238.847 155.24 243 147.732 243V257ZM122.098 238.944C124.282 250.385 136.184 257 147.732 257V243C140.239 243 136.333 238.851 135.85 236.318L122.098 238.944ZM166.508 230.631H128.974V244.631H166.508V230.631Z" mask="url(#path-2-inside-1_302_2)"/></g><defs><filter id="filter0_f_302_2" width="294.276" height="294.276" x=".371" y=".829" color-interpolation-filters="sRGB" filterUnits="userSpaceOnUse"><feFlood flood-opacity="0" result="BackgroundImageFix"/><feBlend in="SourceGraphic" in2="BackgroundImageFix" mode="normal" result="shape"/><feGaussianBlur result="effect1_foregroundBlur_302_2" stdDeviation="45"/></filter><filter id="filter1_bdiiii_302_2" width="213.49" height="297.031" x="47" y="8.969" color-interpolation-filters="sRGB" filterUnits="userSpaceOnUse"><feFlood flood-opacity="0" result="BackgroundImageFix"/><feGaussianBlur in="BackgroundImage" stdDeviation="10"/><feComposite in2="SourceAlpha" operator="in" result="effect1_backgroundBlur_302_2"/><feColorMatrix in="SourceAlpha" result="hardAlpha" type="matrix" values="0 0 0 0 0 0 0 0 0 0 0 0 0 0 0 0 0 0 127 0"/><feOffset dx="6" dy="16"/><feGaussianBlur stdDeviation="20"/><feColorMatrix type="matrix" values="0 0 0 0 0.675 0 0 0 0 0.455345 0 0 0 0 0.151875 0 0 0 0.11 0"/><feBlend in2="effect1_backgroundBlur_302_2" mode="normal" result="effect2_dropShadow_302_2"/><feBlend in="SourceGraphic" in2="effect2_dropShadow_302_2" mode="normal" result="shape"/><feColorMatrix in="SourceAlpha" result="hardAlpha" type="matrix" values="0 0 0 0 0 0 0 0 0 0 0 0 0 0 0 0 0 0 127 0"/><feOffset dy="10"/><feGaussianBlur stdDeviation="5"/><feComposite in2="hardAlpha" k2="-1" k3="1" operator="arithmetic"/><feColorMatrix type="matrix" values="0 0 0 0 1 0 0 0 0 1 0 0 0 0 1 0 0 0 0.15 0"/><feBlend in2="shape" mode="normal" result="effect3_innerShadow_302_2"/><feColorMatrix in="SourceAlpha" result="hardAlpha" type="matrix" values="0 0 0 0 0 0 0 0 0 0 0 0 0 0 0 0 0 0 127 0"/><feOffset dy="-10"/><feGaussianBlur stdDeviation="6"/><feComposite in2="hardAlpha" k2="-1" k3="1" operator="arithmetic"/><feColorMatrix type="matrix" values="0 0 0 0 0.984314 0 0 0 0 0.65098 0 0 0 0 0.27451 0 0 0 0.22 0"/><feBlend in2="effect3_innerShadow_302_2" mode="normal" result="effect4_innerShadow_302_2"/><feColorMatrix in="SourceAlpha" result="hardAlpha" type="matrix" values="0 0 0 0 0 0 0 0 0 0 0 0 0 0 0 0 0 0 127 0"/><feOffset dy="-10"/><feGaussianBlur stdDeviation="5"/><feComposite in2="hardAlpha" k2="-1" k3="1" operator="arithmetic"/><feColorMatrix type="matrix" values="0 0 0 0 1 0 0 0 0 0.670333 0 0 0 0 0.283333 0 0 0 0.15 0"/><feBlend in2="effect4_innerShadow_302_2" mode="normal" result="effect5_innerShadow_302_2"/><feColorMatrix in="SourceAlpha" result="hardAlpha" type="matrix" values="0 0 0 0 0 0 0 0 0 0 0 0 0 0 0 0 0 0 127 0"/><feOffset dy="5"/><feGaussianBlur stdDeviation="5"/><feComposite in2="hardAlpha" k2="-1" k3="1" operator="arithmetic"/><feColorMatrix type="matrix" values="0 0 0 0 1 0 0 0 0 0.670333 0 0 0 0 0.283333 0 0 0 0.25 0"/><feBlend in2="effect5_innerShadow_302_2" mode="normal" result="effect6_innerShadow_302_2"/></filter><radialGradient id="paint0_radial_302_2" cx="0" cy="0" r="1" gradientTransform="translate(99.1616 77.6436) rotate(53.4711) scale(147.683)" gradientUnits="userSpaceOnUse"><stop stop-color="#00ECA5"/><stop offset="1" stop-color="#0B4FFF"/></radialGradient><linearGradient id="paint1_linear_302_2" x1="147.808" x2="229.572" y1="41.344" y2="210.472" gradientUnits="userSpaceOnUse"><stop stop-color="#8DFFC8"/><stop offset=".883" stop-color="#268FF0"/><stop offset="1" stop-color="#06F"/></linearGradient></defs></svg>