<svg width="369" height="266" viewBox="0 0 369 266" fill="none" xmlns="http://www.w3.org/2000/svg">
<rect width="369" height="266" fill="#6E4C83"/>
<rect x="22" y="24" width="323" height="215" fill="#4D2270"/>
<path d="M113.529 139.049C113.529 143.17 112.875 146.725 111.566 149.713C110.258 152.682 108.422 155.006 106.059 156.686L113.676 162.662L109.838 166.207L100.844 159.059C99.4375 159.41 97.9531 159.586 96.3906 159.586C93.0312 159.586 90.0527 158.766 87.4551 157.125C84.8574 155.465 82.8359 153.111 81.3906 150.064C79.9648 146.998 79.2324 143.453 79.1934 139.43V136.354C79.1934 132.252 79.9062 128.629 81.332 125.484C82.7578 122.34 84.7695 119.938 87.3672 118.277C89.9844 116.598 92.9727 115.758 96.332 115.758C99.7695 115.758 102.787 116.588 105.385 118.248C108.002 119.908 110.014 122.301 111.42 125.426C112.826 128.531 113.529 132.164 113.529 136.324V139.049ZM107.904 136.295C107.904 131.275 106.898 127.408 104.887 124.693C102.895 121.959 100.043 120.592 96.332 120.592C92.7969 120.592 90.0039 121.949 87.9531 124.664C85.9219 127.359 84.877 131.109 84.8184 135.914V139.049C84.8184 143.932 85.834 147.779 87.8652 150.592C89.916 153.404 92.7578 154.811 96.3906 154.811C100.023 154.811 102.836 153.492 104.828 150.855C106.82 148.199 107.846 144.4 107.904 139.459V136.295ZM152.23 116.344V145.348C152.211 149.371 150.941 152.662 148.422 155.221C145.922 157.779 142.523 159.215 138.227 159.527L136.732 159.586C132.064 159.586 128.344 158.326 125.57 155.807C122.797 153.287 121.391 149.82 121.352 145.406V116.344H126.918V145.23C126.918 148.316 127.768 150.719 129.467 152.438C131.166 154.137 133.588 154.986 136.732 154.986C139.916 154.986 142.348 154.137 144.027 152.438C145.727 150.738 146.576 148.346 146.576 145.26V116.344H152.23ZM167.143 159H161.518V116.344H167.143V159ZM181.674 154.4H206.078V159H175.023V154.781L198.402 120.973H175.404V116.344H205.141V120.475L181.674 154.4ZM217.592 154.4H241.996V159H210.941V154.781L234.32 120.973H211.322V116.344H241.059V120.475L217.592 154.4ZM262.299 137.76L273.432 116.344H279.818L265.111 143.092V159H259.486V143.092L244.779 116.344H251.225L262.299 137.76Z" fill="white"/>
</svg>
