<svg xmlns="http://www.w3.org/2000/svg" width="779" height="907" fill="none" viewBox="0 0 779 907"><path fill="#F2F2F2" d="M377.384 199.434H130.927C126.703 199.434 123.279 202.938 123.279 207.261V388.136C123.279 392.459 126.703 395.963 130.927 395.963H377.384C381.608 395.963 385.032 392.459 385.032 388.136V207.261C385.032 202.938 381.608 199.434 377.384 199.434Z"/><path fill="#fff" fill-rule="evenodd" d="M202.281 374.72V238.671C202.281 237.192 203.452 235.993 204.897 235.993H366.058C367.503 235.993 368.675 237.192 368.675 238.671V375.222C368.675 376.423 367.698 377.398 366.493 377.398H204.897C203.452 377.398 202.281 376.199 202.281 374.72Z" clip-rule="evenodd"/><path fill="#fff" fill-rule="evenodd" d="M235.481 263.144H225.958C225.221 263.144 224.623 262.549 224.623 261.814C224.623 261.079 225.221 260.484 225.958 260.484H235.481C236.218 260.484 236.816 261.079 236.816 261.814C236.816 262.549 236.218 263.144 235.481 263.144Z" clip-rule="evenodd"/><path fill="#fff" fill-rule="evenodd" d="M235.635 269.528H226.111C225.375 269.528 224.777 268.932 224.777 268.198C224.777 267.463 225.375 266.868 226.111 266.868H235.635C236.372 266.868 236.969 267.463 236.969 268.198C236.969 268.932 236.372 269.528 235.635 269.528Z" clip-rule="evenodd"/><path fill="#2A84C6" d="M352.516 354.969C353.057 354.969 353.497 355.418 353.497 355.973C353.497 356.509 353.086 356.947 352.569 356.975L352.516 356.977H217.971C217.429 356.977 216.99 356.527 216.99 355.973C216.99 355.437 217.4 354.999 217.917 354.97L217.971 354.969H352.516Z"/><path fill="#fff" fill-opacity=".85" d="M352.516 354.969C353.057 354.969 353.497 355.418 353.497 355.973C353.497 356.509 353.086 356.947 352.569 356.975L352.516 356.977H217.971C217.429 356.977 216.99 356.527 216.99 355.973C216.99 355.437 217.4 354.999 217.917 354.97L217.971 354.969H352.516Z"/><path fill="#2A84C6" d="M331.013 364.157C331.555 364.157 331.994 364.606 331.994 365.161C331.994 365.697 331.584 366.135 331.067 366.164L331.013 366.165H217.971C217.429 366.165 216.99 365.715 216.99 365.161C216.99 364.625 217.4 364.187 217.917 364.158L217.971 364.157H331.013Z"/><path fill="#fff" fill-opacity=".85" d="M331.013 364.157C331.555 364.157 331.994 364.606 331.994 365.161C331.994 365.697 331.584 366.135 331.067 366.164L331.013 366.165H217.971C217.429 366.165 216.99 365.715 216.99 365.161C216.99 364.625 217.4 364.187 217.917 364.158L217.971 364.157H331.013Z"/><path fill="#1443BD" d="M130.29 190.58H377.889C381.761 190.58 384.9 193.721 384.9 197.597V218.507H123.279V197.597C123.279 193.721 126.418 190.58 130.29 190.58Z"/><path fill="#000" fill-opacity=".5" d="M130.29 190.58H377.889C381.761 190.58 384.9 193.721 384.9 197.597V218.507H123.279V197.597C123.279 193.721 126.418 190.58 130.29 190.58Z"/><path fill="#F56D7E" d="M138.017 209.451C140.781 209.451 143.021 207.208 143.021 204.442C143.021 201.676 140.781 199.434 138.017 199.434C135.253 199.434 133.013 201.676 133.013 204.442C133.013 207.208 135.253 209.451 138.017 209.451Z"/><path fill="#B7EE81" d="M157.486 209.451C160.25 209.451 162.491 207.208 162.491 204.442C162.491 201.676 160.25 199.434 157.486 199.434C154.723 199.434 152.482 201.676 152.482 204.442C152.482 207.208 154.723 209.451 157.486 209.451Z"/><path fill="#fff" fill-opacity=".2" d="M157.486 209.451C160.25 209.451 162.491 207.208 162.491 204.442C162.491 201.676 160.25 199.434 157.486 199.434C154.723 199.434 152.482 201.676 152.482 204.442C152.482 207.208 154.723 209.451 157.486 209.451Z"/><path fill="#B7EE81" d="M175.874 209.451C178.638 209.451 180.878 207.208 180.878 204.442C180.878 201.676 178.638 199.434 175.874 199.434C173.11 199.434 170.87 201.676 170.87 204.442C170.87 207.208 173.11 209.451 175.874 209.451Z"/><path fill="#fff" fill-opacity=".2" d="M175.874 209.451C178.638 209.451 180.878 207.208 180.878 204.442C180.878 201.676 178.638 199.434 175.874 199.434C173.11 199.434 170.87 201.676 170.87 204.442C170.87 207.208 173.11 209.451 175.874 209.451Z"/><path fill="#fff" d="M211.946 303.893L208.727 301.469L211.946 299.051L215.165 301.469L211.946 303.893Z"/><path fill="#1443BD" d="M189.595 235.96H143.492C141.886 235.96 140.585 237.292 140.585 238.935V374.661C140.585 376.305 141.886 377.637 143.492 377.637H189.595C191.201 377.637 192.503 376.305 192.503 374.661V238.935C192.503 237.292 191.201 235.96 189.595 235.96Z"/><path fill="#fff" fill-opacity=".65" d="M189.595 235.96H143.492C141.886 235.96 140.585 237.292 140.585 238.935V374.661C140.585 376.305 141.886 377.637 143.492 377.637H189.595C191.201 377.637 192.503 376.305 192.503 374.661V238.935C192.503 237.292 191.201 235.96 189.595 235.96Z"/><path fill="#fff" d="M179.687 292.409H153.052C152.14 292.409 151.401 293.166 151.401 294.099V298.279C151.401 299.212 152.14 299.969 153.052 299.969H179.687C180.599 299.969 181.338 299.212 181.338 298.279V294.099C181.338 293.166 180.599 292.409 179.687 292.409Z"/><path fill="#2A84C6" d="M179.712 306.799H153.027C152.129 306.799 151.401 307.544 151.401 308.463V312.465C151.401 313.384 152.129 314.13 153.027 314.13H179.712C180.61 314.13 181.338 313.384 181.338 312.465V308.463C181.338 307.544 180.61 306.799 179.712 306.799Z"/><path fill="#fff" fill-opacity=".85" d="M179.712 306.799H153.027C152.129 306.799 151.401 307.544 151.401 308.463V312.465C151.401 313.384 152.129 314.13 153.027 314.13H179.712C180.61 314.13 181.338 313.384 181.338 312.465V308.463C181.338 307.544 180.61 306.799 179.712 306.799Z"/><path fill="#B7EE81" d="M179.712 321.188H153.027C152.129 321.188 151.401 321.933 151.401 322.852V326.855C151.401 327.774 152.129 328.519 153.027 328.519H179.712C180.61 328.519 181.338 327.774 181.338 326.855V322.852C181.338 321.933 180.61 321.188 179.712 321.188Z"/><path fill="#fff" fill-opacity=".5" d="M179.712 321.188H153.027C152.129 321.188 151.401 321.933 151.401 322.852V326.855C151.401 327.774 152.129 328.519 153.027 328.519H179.712C180.61 328.519 181.338 327.774 181.338 326.855V322.852C181.338 321.933 180.61 321.188 179.712 321.188Z"/><path fill="#B7EE81" d="M179.712 335.577H153.027C152.129 335.577 151.401 336.322 151.401 337.241V341.243C151.401 342.162 152.129 342.907 153.027 342.907H179.712C180.61 342.907 181.338 342.162 181.338 341.243V337.241C181.338 336.322 180.61 335.577 179.712 335.577Z"/><path fill="#fff" fill-opacity=".2" d="M179.712 335.577H153.027C152.129 335.577 151.401 336.322 151.401 337.241V341.243C151.401 342.162 152.129 342.907 153.027 342.907H179.712C180.61 342.907 181.338 342.162 181.338 341.243V337.241C181.338 336.322 180.61 335.577 179.712 335.577Z"/><path fill="#2A84C6" fill-rule="evenodd" d="M226.466 297.066C225.656 297.066 225 296.38 225 295.533C225 294.686 225.656 294 226.466 294H253.355C254.165 294 254.822 294.686 254.822 295.533C254.822 296.38 254.165 297.066 253.355 297.066H226.466Z" clip-rule="evenodd"/><path fill="#fff" fill-opacity=".2" fill-rule="evenodd" d="M226.466 297.066C225.656 297.066 225 296.38 225 295.533C225 294.686 225.656 294 226.466 294H253.355C254.165 294 254.822 294.686 254.822 295.533C254.822 296.38 254.165 297.066 253.355 297.066H226.466Z" clip-rule="evenodd"/><path fill="#2A84C6" fill-rule="evenodd" d="M234.466 304.066C233.656 304.066 233 303.38 233 302.533C233 301.686 233.656 301 234.466 301H244.932C245.741 301 246.398 301.686 246.398 302.533C246.398 303.38 245.741 304.066 244.932 304.066H234.466Z" clip-rule="evenodd"/><path fill="#fff" fill-opacity=".85" fill-rule="evenodd" d="M234.466 304.066C233.656 304.066 233 303.38 233 302.533C233 301.686 233.656 301 234.466 301H244.932C245.741 301 246.398 301.686 246.398 302.533C246.398 303.38 245.741 304.066 244.932 304.066H234.466Z" clip-rule="evenodd"/><g filter="url(#filter0_i_114_5518)"><rect width="30.462" height="36" x="225" y="254" fill="#fff" rx="4"/></g><path fill="#F56D7E" fill-rule="evenodd" d="M248.412 273.192C246.925 271.399 242.317 267.929 244.926 265.185C247.269 262.72 249.262 265.941 252 269.353L248.412 273.192Z" clip-rule="evenodd"/><path fill="#F56D7E" fill-rule="evenodd" d="M231.357 273.192C232.844 271.399 237.756 267.52 235.147 264.775C232.804 262.311 230.508 265.941 227.769 269.353L231.357 273.192Z" clip-rule="evenodd"/><path fill="#F56D7E" fill-rule="evenodd" d="M234.737 278.475C235.25 280.6 235.349 280.91 235.349 280.91C238.35 281.112 244.844 280.91 244.844 280.91C245.111 279.639 245.391 278.204 245.391 278.204C245.391 278.204 248.637 265.315 247.6 264.581C246.644 263.905 244.943 263.372 242.7 263C242.637 263.138 242.008 264.218 239.908 264.243C237.61 264.271 237.115 263.249 237.032 263.07C235.15 263.301 233.962 263.446 232.791 264.167C232.429 264.389 232.675 269.931 234.737 278.475Z" clip-rule="evenodd"/><path fill="#2A84C6" fill-rule="evenodd" d="M219.538 345.46C218.575 345.46 217.794 344.643 217.794 343.635C217.794 342.627 218.575 341.81 219.538 341.81H231.987C232.951 341.81 233.731 342.627 233.731 343.635C233.731 344.643 232.951 345.46 231.987 345.46H219.538Z" clip-rule="evenodd"/><path fill="#fff" fill-opacity=".85" fill-rule="evenodd" d="M219.538 345.46C218.575 345.46 217.794 344.643 217.794 343.635C217.794 342.627 218.575 341.81 219.538 341.81H231.987C232.951 341.81 233.731 342.627 233.731 343.635C233.731 344.643 232.951 345.46 231.987 345.46H219.538Z" clip-rule="evenodd"/><path fill="#2A84C6" fill-rule="evenodd" d="M219.12 334.667C217.731 334.667 216.605 333.867 216.605 332.881C216.605 331.895 217.731 331.095 219.12 331.095H265.239C266.628 331.095 267.754 331.895 267.754 332.881C267.754 333.867 266.628 334.667 265.239 334.667H219.12Z" clip-rule="evenodd"/><path fill="#fff" fill-opacity=".2" fill-rule="evenodd" d="M219.12 334.667C217.731 334.667 216.605 333.867 216.605 332.881C216.605 331.895 217.731 331.095 219.12 331.095H265.239C266.628 331.095 267.754 331.895 267.754 332.881C267.754 333.867 266.628 334.667 265.239 334.667H219.12Z" clip-rule="evenodd"/><path fill="#2A84C6" fill-rule="evenodd" d="M242.91 345.381C241.521 345.381 240.395 344.581 240.395 343.595C240.395 342.609 241.521 341.81 242.91 341.81H289.03C290.419 341.81 291.545 342.609 291.545 343.595C291.545 344.581 290.419 345.381 289.03 345.381H242.91Z" clip-rule="evenodd"/><path fill="#fff" fill-opacity=".85" fill-rule="evenodd" d="M242.91 345.381C241.521 345.381 240.395 344.581 240.395 343.595C240.395 342.609 241.521 341.81 242.91 341.81H289.03C290.419 341.81 291.545 342.609 291.545 343.595C291.545 344.581 290.419 345.381 289.03 345.381H242.91Z" clip-rule="evenodd"/><path fill="#2A84C6" fill-rule="evenodd" d="M270.466 297.066C269.656 297.066 269 296.38 269 295.533C269 294.686 269.656 294 270.466 294H297.355C298.165 294 298.822 294.686 298.822 295.533C298.822 296.38 298.165 297.066 297.355 297.066H270.466Z" clip-rule="evenodd"/><path fill="#fff" fill-opacity=".2" fill-rule="evenodd" d="M270.466 297.066C269.656 297.066 269 296.38 269 295.533C269 294.686 269.656 294 270.466 294H297.355C298.165 294 298.822 294.686 298.822 295.533C298.822 296.38 298.165 297.066 297.355 297.066H270.466Z" clip-rule="evenodd"/><path fill="#2A84C6" fill-rule="evenodd" d="M278.466 304.066C277.656 304.066 277 303.38 277 302.533C277 301.686 277.656 301 278.466 301H288.932C289.741 301 290.398 301.686 290.398 302.533C290.398 303.38 289.741 304.066 288.932 304.066H278.466Z" clip-rule="evenodd"/><path fill="#fff" fill-opacity=".85" fill-rule="evenodd" d="M278.466 304.066C277.656 304.066 277 303.38 277 302.533C277 301.686 277.656 301 278.466 301H288.932C289.741 301 290.398 301.686 290.398 302.533C290.398 303.38 289.741 304.066 288.932 304.066H278.466Z" clip-rule="evenodd"/><g filter="url(#filter1_i_114_5518)"><rect width="30.462" height="36" x="269" y="254" fill="#fff" rx="4"/></g><path fill="#1443BD" fill-rule="evenodd" d="M292.412 273.192C290.925 271.399 286.317 267.929 288.926 265.185C291.269 262.72 293.262 265.941 296 269.353L292.412 273.192Z" clip-rule="evenodd"/><path fill="#fff" fill-opacity=".65" fill-rule="evenodd" d="M292.412 273.192C290.925 271.399 286.317 267.929 288.926 265.185C291.269 262.72 293.262 265.941 296 269.353L292.412 273.192Z" clip-rule="evenodd"/><path fill="#1443BD" fill-rule="evenodd" d="M275.357 273.192C276.844 271.399 281.756 267.52 279.147 264.775C276.804 262.311 274.508 265.941 271.769 269.353L275.357 273.192Z" clip-rule="evenodd"/><path fill="#fff" fill-opacity=".65" fill-rule="evenodd" d="M275.357 273.192C276.844 271.399 281.756 267.52 279.147 264.775C276.804 262.311 274.508 265.941 271.769 269.353L275.357 273.192Z" clip-rule="evenodd"/><path fill="#1443BD" fill-rule="evenodd" d="M278.737 278.475C279.25 280.6 279.349 280.91 279.349 280.91C282.35 281.112 288.844 280.91 288.844 280.91C289.111 279.639 289.391 278.204 289.391 278.204C289.391 278.204 292.637 265.315 291.6 264.581C290.644 263.905 288.943 263.372 286.7 263C286.637 263.138 286.008 264.218 283.908 264.243C281.61 264.271 281.115 263.249 281.032 263.07C279.15 263.301 277.962 263.446 276.791 264.167C276.429 264.389 276.675 269.931 278.737 278.475Z" clip-rule="evenodd"/><path fill="#fff" fill-opacity=".65" fill-rule="evenodd" d="M278.737 278.475C279.25 280.6 279.349 280.91 279.349 280.91C282.35 281.112 288.844 280.91 288.844 280.91C289.111 279.639 289.391 278.204 289.391 278.204C289.391 278.204 292.637 265.315 291.6 264.581C290.644 263.905 288.943 263.372 286.7 263C286.637 263.138 286.008 264.218 283.908 264.243C281.61 264.271 281.115 263.249 281.032 263.07C279.15 263.301 277.962 263.446 276.791 264.167C276.429 264.389 276.675 269.931 278.737 278.475Z" clip-rule="evenodd"/><path fill="#2A84C6" fill-rule="evenodd" d="M314.466 297.066C313.656 297.066 313 296.38 313 295.533C313 294.686 313.656 294 314.466 294H341.355C342.165 294 342.822 294.686 342.822 295.533C342.822 296.38 342.165 297.066 341.355 297.066H314.466Z" clip-rule="evenodd"/><path fill="#fff" fill-opacity=".2" fill-rule="evenodd" d="M314.466 297.066C313.656 297.066 313 296.38 313 295.533C313 294.686 313.656 294 314.466 294H341.355C342.165 294 342.822 294.686 342.822 295.533C342.822 296.38 342.165 297.066 341.355 297.066H314.466Z" clip-rule="evenodd"/><path fill="#2A84C6" fill-rule="evenodd" d="M322.466 304.066C321.656 304.066 321 303.38 321 302.533C321 301.686 321.656 301 322.466 301H332.932C333.741 301 334.398 301.686 334.398 302.533C334.398 303.38 333.741 304.066 332.932 304.066H322.466Z" clip-rule="evenodd"/><path fill="#fff" fill-opacity=".85" fill-rule="evenodd" d="M322.466 304.066C321.656 304.066 321 303.38 321 302.533C321 301.686 321.656 301 322.466 301H332.932C333.741 301 334.398 301.686 334.398 302.533C334.398 303.38 333.741 304.066 332.932 304.066H322.466Z" clip-rule="evenodd"/><g filter="url(#filter2_i_114_5518)"><rect width="30.462" height="36" x="313" y="254" fill="#fff" rx="4"/></g><path fill="#B7EE81" fill-rule="evenodd" d="M336.412 273.192C334.925 271.399 330.317 267.929 332.926 265.185C335.269 262.72 337.262 265.941 340 269.353L336.412 273.192Z" clip-rule="evenodd"/><path fill="#fff" fill-opacity=".5" fill-rule="evenodd" d="M336.412 273.192C334.925 271.399 330.317 267.929 332.926 265.185C335.269 262.72 337.262 265.941 340 269.353L336.412 273.192Z" clip-rule="evenodd"/><path fill="#B7EE81" fill-rule="evenodd" d="M319.357 273.192C320.844 271.399 325.756 267.52 323.147 264.775C320.804 262.311 318.508 265.941 315.769 269.353L319.357 273.192Z" clip-rule="evenodd"/><path fill="#fff" fill-opacity=".5" fill-rule="evenodd" d="M319.357 273.192C320.844 271.399 325.756 267.52 323.147 264.775C320.804 262.311 318.508 265.941 315.769 269.353L319.357 273.192Z" clip-rule="evenodd"/><path fill="#B7EE81" fill-rule="evenodd" d="M322.737 278.475C323.25 280.6 323.349 280.91 323.349 280.91C326.35 281.112 332.844 280.91 332.844 280.91C333.111 279.639 333.391 278.204 333.391 278.204C333.391 278.204 336.637 265.315 335.6 264.581C334.644 263.905 332.943 263.372 330.7 263C330.637 263.138 330.008 264.218 327.908 264.243C325.61 264.271 325.115 263.249 325.032 263.07C323.15 263.301 321.962 263.446 320.791 264.167C320.429 264.389 320.675 269.931 322.737 278.475Z" clip-rule="evenodd"/><path fill="#fff" fill-opacity=".5" fill-rule="evenodd" d="M322.737 278.475C323.25 280.6 323.349 280.91 323.349 280.91C326.35 281.112 332.844 280.91 332.844 280.91C333.111 279.639 333.391 278.204 333.391 278.204C333.391 278.204 336.637 265.315 335.6 264.581C334.644 263.905 332.943 263.372 330.7 263C330.637 263.138 330.008 264.218 327.908 264.243C325.61 264.271 325.115 263.249 325.032 263.07C323.15 263.301 321.962 263.446 320.791 264.167C320.429 264.389 320.675 269.931 322.737 278.475Z" clip-rule="evenodd"/><path fill="#FFC999" fill-rule="evenodd" d="M385.048 504.852C392.221 515.013 405.897 517.675 416.213 510.919L509.668 449.731C523.415 440.732 526.941 421.76 517.387 408.224C507.943 394.848 489.526 392.189 476.835 402.369L389.521 472.416C379.762 480.245 377.788 494.566 385.048 504.852Z" clip-rule="evenodd"/><path fill="#1443BD" fill-rule="evenodd" d="M454.273 490.394L513.636 451.863C526.171 441.892 526.178 416.317 516.213 403.669C506.247 391.023 488.085 389.197 475.906 399.618L420.26 447.228C420.26 447.228 436.912 481.644 454.273 490.394Z" clip-rule="evenodd"/><path fill="#fff" fill-opacity=".5" fill-rule="evenodd" d="M454.273 490.394L513.636 451.863C526.171 441.892 526.178 416.317 516.213 403.669C506.247 391.023 488.085 389.197 475.906 399.618L420.26 447.228C420.26 447.228 436.912 481.644 454.273 490.394Z" clip-rule="evenodd"/><path fill="#FFC999" fill-rule="evenodd" d="M345.652 368.645C339.65 371.821 336.913 379.083 339.275 385.562L380.8 499.432C385.571 512.509 400.323 518.52 412.571 512.379C424.541 506.377 429.064 491.271 422.435 479.436L363.372 373.989C359.816 367.639 352.005 365.283 345.652 368.645Z" clip-rule="evenodd"/><path fill="#FFC999" fill-rule="evenodd" d="M549.063 394.652L534.032 377.864L538.77 322.616L580.805 326.623L580.594 381.295L549.063 394.652Z" clip-rule="evenodd"/><path fill="#FFC999" fill-rule="evenodd" d="M528.026 317.16C528.026 317.16 521.786 310.136 518.937 314.643C516.09 319.152 520.35 335.718 527.318 336.361C536.627 337.219 528.026 317.16 528.026 317.16Z" clip-rule="evenodd"/><path fill="#FFC999" fill-rule="evenodd" d="M567.402 360.485C567.402 360.485 553.359 371.537 535.554 359.587C522.736 350.985 522.016 321.282 525.188 299.597C526.983 287.326 532.732 280.877 544.575 277.603C556.421 274.329 588.24 275.214 587.347 311.461C586.351 351.834 567.402 360.485 567.402 360.485Z" clip-rule="evenodd"/><path fill="#DD936F" d="M545.49 305.953L545.375 305.968C545.065 306.038 544.857 306.324 544.868 306.637L544.883 306.756L546.515 314.333L541.913 334.718C541.83 335.085 542.062 335.44 542.409 335.514L542.517 335.528L550.999 335.871C551.355 335.885 551.656 335.601 551.67 335.237C551.682 334.908 551.459 334.626 551.154 334.563L551.05 334.55L543.348 334.237L547.807 314.484C547.821 314.42 547.826 314.355 547.822 314.29L547.808 314.193L546.145 306.471C546.076 306.154 545.796 305.941 545.49 305.953Z"/><path fill="#F56D7E" d="M557.852 341.164C557.743 340.667 557.26 340.354 556.774 340.466L556.452 340.531L556.325 340.554C555.937 340.624 555.479 340.694 554.955 340.76C551.427 341.202 547.138 341.214 542.296 340.508C541.803 340.436 541.346 340.787 541.276 341.292C541.206 341.797 541.549 342.264 542.042 342.336C547.049 343.066 551.496 343.054 555.174 342.593L555.809 342.507C556.01 342.478 556.2 342.448 556.378 342.418L557.014 342.301C557.079 342.288 557.131 342.276 557.17 342.268C557.656 342.156 557.961 341.662 557.852 341.164Z"/><path fill="#1443BD" fill-rule="evenodd" d="M582.856 326.87L590.167 313.12C590.167 313.12 595.129 293.125 590.829 284.327C584.155 270.674 567.97 270.541 558.474 266.664C548.978 262.785 549.165 259.481 545.255 259.913C541.344 260.344 525.953 270.645 523.932 281.845C522.155 291.692 523.881 316.971 523.881 316.971C523.881 316.971 527.25 294.735 529.523 288.904C537.226 285.885 564.876 286.568 576.308 290.56C576.308 290.56 577.087 298.19 577.508 303.559C583.554 308.269 582.856 326.87 582.856 326.87Z" clip-rule="evenodd"/><path fill="#000" fill-opacity=".5" fill-rule="evenodd" d="M582.856 326.87L590.167 313.12C590.167 313.12 595.129 293.125 590.829 284.327C584.155 270.674 567.97 270.541 558.474 266.664C548.978 262.785 549.165 259.481 545.255 259.913C541.344 260.344 525.953 270.645 523.932 281.845C522.155 291.692 523.881 316.971 523.881 316.971C523.881 316.971 527.25 294.735 529.523 288.904C537.226 285.885 564.876 286.568 576.308 290.56C576.308 290.56 577.087 298.19 577.508 303.559C583.554 308.269 582.856 326.87 582.856 326.87Z" clip-rule="evenodd"/><path fill="#DD936F" d="M535.332 358.32C535.099 358.043 534.691 358.012 534.421 358.25C534.15 358.488 534.119 358.905 534.352 359.182C534.529 359.392 534.867 359.741 535.371 360.182C536.198 360.905 537.199 361.626 538.376 362.298C544.707 365.91 553.168 366.675 563.838 362.85C564.175 362.729 564.352 362.352 564.234 362.007C564.116 361.663 563.748 361.481 563.411 361.602C553.091 365.302 545.014 364.572 539.005 361.143C537.905 360.516 536.974 359.845 536.21 359.176L535.901 358.899C535.622 358.64 535.433 358.441 535.332 358.32Z"/><path fill="#1443BD" d="M541.919 303.644C538.942 302.415 535.924 301.741 533.036 301.928C531.002 302.061 529.117 302.626 527.441 303.683C526.631 304.194 526.38 305.279 526.879 306.108C527.378 306.937 528.439 307.194 529.248 306.684C530.419 305.945 531.759 305.543 533.255 305.446C535.551 305.297 538.09 305.864 540.631 306.913C541.272 307.178 541.875 307.458 542.429 307.74L542.834 307.953C543.222 308.16 543.49 308.317 543.618 308.398C544.429 308.908 545.489 308.649 545.988 307.82C546.486 306.991 546.233 305.905 545.423 305.396L545.056 305.173C544.321 304.743 543.246 304.192 541.919 303.644Z"/><path fill="#000" fill-opacity=".5" d="M541.919 303.644C538.942 302.415 535.924 301.741 533.036 301.928C531.002 302.061 529.117 302.626 527.441 303.683C526.631 304.194 526.38 305.279 526.879 306.108C527.378 306.937 528.439 307.194 529.248 306.684C530.419 305.945 531.759 305.543 533.255 305.446C535.551 305.297 538.09 305.864 540.631 306.913C541.272 307.178 541.875 307.458 542.429 307.74L542.834 307.953C543.222 308.16 543.49 308.317 543.618 308.398C544.429 308.908 545.489 308.649 545.988 307.82C546.486 306.991 546.233 305.905 545.423 305.396L545.056 305.173C544.321 304.743 543.246 304.192 541.919 303.644Z"/><path fill="#1443BD" d="M570.819 306.652C567.842 305.423 564.824 304.749 561.936 304.936C559.901 305.069 558.017 305.634 556.341 306.691C555.531 307.202 555.279 308.287 555.778 309.116C556.277 309.945 557.338 310.202 558.148 309.692C559.319 308.953 560.659 308.551 562.155 308.454C564.451 308.305 566.99 308.872 569.53 309.921C570.172 310.186 570.775 310.466 571.328 310.749L571.734 310.961C572.122 311.168 572.39 311.325 572.518 311.406C573.329 311.916 574.389 311.657 574.887 310.828C575.386 309.999 575.133 308.913 574.323 308.404L573.956 308.181C573.221 307.751 572.146 307.2 570.819 306.652Z"/><path fill="#000" fill-opacity=".5" d="M570.819 306.652C567.842 305.423 564.824 304.749 561.936 304.936C559.901 305.069 558.017 305.634 556.341 306.691C555.531 307.202 555.279 308.287 555.778 309.116C556.277 309.945 557.338 310.202 558.148 309.692C559.319 308.953 560.659 308.551 562.155 308.454C564.451 308.305 566.99 308.872 569.53 309.921C570.172 310.186 570.775 310.466 571.328 310.749L571.734 310.961C572.122 311.168 572.39 311.325 572.518 311.406C573.329 311.916 574.389 311.657 574.887 310.828C575.386 309.999 575.133 308.913 574.323 308.404L573.956 308.181C573.221 307.751 572.146 307.2 570.819 306.652Z"/><path fill="#DD936F" d="M545.73 347.183C545.374 347.162 545.068 347.44 545.048 347.805C545.029 348.133 545.247 348.419 545.551 348.488L545.655 348.503L550.738 348.806C551.094 348.827 551.399 348.549 551.42 348.185C551.439 347.857 551.22 347.571 550.917 347.501L550.813 347.486L545.73 347.183Z"/><path fill="#1443BD" d="M545.772 313.023C545.06 312.971 544.442 313.52 544.392 314.248C544.345 314.928 544.808 315.524 545.449 315.642L545.589 315.66L551.823 316.112C552.535 316.164 553.153 315.616 553.203 314.887C553.25 314.208 552.786 313.611 552.146 313.493L552.006 313.475L545.772 313.023Z"/><path fill="#000" fill-opacity=".5" d="M545.772 313.023C545.06 312.971 544.442 313.52 544.392 314.248C544.345 314.928 544.808 315.524 545.449 315.642L545.589 315.66L551.823 316.112C552.535 316.164 553.153 315.616 553.203 314.887C553.25 314.208 552.786 313.611 552.146 313.493L552.006 313.475L545.772 313.023Z"/><path fill="#1443BD" d="M551.182 317.456C549.876 316.834 548.537 316.502 547.22 316.635C546.108 316.748 545.091 317.196 544.238 318.011C543.716 318.509 543.688 319.345 544.175 319.879C544.662 320.413 545.479 320.442 546.001 319.944C546.427 319.537 546.911 319.323 547.474 319.266C548.257 319.187 549.169 319.414 550.092 319.853C550.584 320.087 550.958 320.319 551.147 320.456C551.728 320.88 552.534 320.742 552.948 320.147C553.363 319.552 553.227 318.727 552.646 318.303C552.338 318.078 551.833 317.765 551.182 317.456Z"/><path fill="#000" fill-opacity=".5" d="M551.182 317.456C549.876 316.834 548.537 316.502 547.22 316.635C546.108 316.748 545.091 317.196 544.238 318.011C543.716 318.509 543.688 319.345 544.175 319.879C544.662 320.413 545.479 320.442 546.001 319.944C546.427 319.537 546.911 319.323 547.474 319.266C548.257 319.187 549.169 319.414 550.092 319.853C550.584 320.087 550.958 320.319 551.147 320.456C551.728 320.88 552.534 320.742 552.948 320.147C553.363 319.552 553.227 318.727 552.646 318.303C552.338 318.078 551.833 317.765 551.182 317.456Z"/><path fill="#1443BD" d="M575.097 314.797C574.384 314.758 573.776 315.318 573.739 316.047C573.704 316.728 574.178 317.315 574.821 317.422L574.961 317.437L585.192 317.987C585.904 318.026 586.512 317.466 586.55 316.736C586.585 316.056 586.11 315.469 585.468 315.362L585.328 315.347L575.097 314.797Z"/><path fill="#000" fill-opacity=".5" d="M575.097 314.797C574.384 314.758 573.776 315.318 573.739 316.047C573.704 316.728 574.178 317.315 574.821 317.422L574.961 317.437L585.192 317.987C585.904 318.026 586.512 317.466 586.55 316.736C586.585 316.056 586.11 315.469 585.468 315.362L585.328 315.347L575.097 314.797Z"/><path fill="#fff" fill-rule="evenodd" d="M574.38 314.004L554.85 312.844C553.487 312.763 552.318 313.825 552.248 315.219C552.12 317.824 552.026 322.006 552.484 325.62C553.025 329.879 556.582 332.68 560.759 333.127C565.975 333.687 570.668 333.969 573.2 331.333C577.056 327.315 576.567 320.295 576.698 316.6C576.747 315.245 575.704 314.081 574.38 314.004Z" clip-rule="evenodd"/><path fill="#1443BD" d="M567.257 324.771C567.723 324.87 568.179 324.564 568.276 324.088C568.827 321.379 567.373 318.733 564.955 318.215C562.537 317.7 560.171 319.532 559.62 322.241C559.523 322.718 559.822 323.185 560.288 323.284C560.753 323.383 561.21 323.077 561.307 322.6C561.674 320.797 563.172 319.637 564.603 319.942C566.035 320.248 566.956 321.925 566.589 323.728C566.492 324.205 566.791 324.672 567.257 324.771Z"/><path fill="#000" fill-opacity=".5" d="M567.257 324.771C567.723 324.87 568.179 324.564 568.276 324.088C568.827 321.379 567.373 318.733 564.955 318.215C562.537 317.7 560.171 319.532 559.62 322.241C559.523 322.718 559.822 323.185 560.288 323.284C560.753 323.383 561.21 323.077 561.307 322.6C561.674 320.797 563.172 319.637 564.603 319.942C566.035 320.248 566.956 321.925 566.589 323.728C566.492 324.205 566.791 324.672 567.257 324.771Z"/><path fill="#fff" fill-rule="evenodd" d="M543.933 311.973L521.822 310.66C520.815 313.917 520.88 326.75 524.52 329.715C529.449 332.741 539.783 332.173 541.535 329.492C544.194 325.424 545.547 317.444 545.701 313.984C545.748 312.929 544.963 312.034 543.933 311.973Z" clip-rule="evenodd"/><path fill="#1443BD" d="M540.259 322.489C540.735 322.497 541.127 322.11 541.136 321.623C541.183 318.856 539.269 316.534 536.799 316.491C534.329 316.449 532.339 318.703 532.295 321.469C532.287 321.956 532.666 322.358 533.142 322.366C533.617 322.374 534.01 321.986 534.017 321.499C534.047 319.657 535.308 318.229 536.77 318.254C538.232 318.279 539.444 319.75 539.413 321.592C539.405 322.079 539.783 322.481 540.259 322.489Z"/><path fill="#000" fill-opacity=".5" d="M540.259 322.489C540.735 322.497 541.127 322.11 541.136 321.623C541.183 318.856 539.269 316.534 536.799 316.491C534.329 316.449 532.339 318.703 532.295 321.469C532.287 321.956 532.666 322.358 533.142 322.366C533.617 322.374 534.01 321.986 534.017 321.499C534.047 319.657 535.308 318.229 536.77 318.254C538.232 318.279 539.444 319.75 539.413 321.592C539.405 322.079 539.783 322.481 540.259 322.489Z"/><path fill="#1443BD" d="M552.288 312.158C551.575 312.135 550.978 312.707 550.956 313.437C550.934 314.118 551.421 314.695 552.065 314.788L552.206 314.8L576.451 315.589C577.164 315.612 577.76 315.039 577.783 314.309C577.804 313.628 577.318 313.051 576.673 312.958L576.533 312.946L552.288 312.158Z"/><path fill="#000" fill-opacity=".5" d="M552.288 312.158C551.575 312.135 550.978 312.707 550.956 313.437C550.934 314.118 551.421 314.695 552.065 314.788L552.206 314.8L576.451 315.589C577.164 315.612 577.76 315.039 577.783 314.309C577.804 313.628 577.318 313.051 576.673 312.958L576.533 312.946L552.288 312.158Z"/><path fill="#1443BD" d="M521.706 309.829C520.994 309.776 520.376 310.324 520.324 311.052C520.277 311.732 520.74 312.329 521.38 312.448L521.52 312.466L545.224 314.217C545.935 314.269 546.554 313.721 546.605 312.993C546.653 312.313 546.19 311.717 545.549 311.597L545.41 311.579L521.706 309.829Z"/><path fill="#000" fill-opacity=".5" d="M521.706 309.829C520.994 309.776 520.376 310.324 520.324 311.052C520.277 311.732 520.74 312.329 521.38 312.448L521.52 312.466L545.224 314.217C545.935 314.269 546.554 313.721 546.605 312.993C546.653 312.313 546.19 311.717 545.549 311.597L545.41 311.579L521.706 309.829Z"/><path fill="#1443BD" d="M554.874 312.405L574.404 313.565C575.963 313.656 577.185 315.023 577.128 316.616L577.107 317.487L577.085 319.065C577.044 321.41 576.961 322.719 576.709 324.332C576.229 327.397 575.232 329.843 573.506 331.641C571.209 334.034 567.85 334.331 560.714 333.566C556.154 333.078 552.604 329.985 552.057 325.677C551.668 322.607 551.632 318.969 551.818 315.196C551.9 313.56 553.272 312.31 554.874 312.405ZM554.824 313.284C553.757 313.221 552.837 314.005 552.694 315.063L552.677 315.241C552.494 318.965 552.529 322.557 552.91 325.563C553.403 329.44 556.619 332.242 560.803 332.69L561.737 332.786C567.958 333.395 570.952 333.045 572.892 331.024C574.475 329.375 575.405 327.093 575.859 324.193L575.943 323.617C576.123 322.294 576.189 321.061 576.224 319.04L576.263 316.716C576.265 316.672 576.266 316.628 576.268 316.584C576.308 315.47 575.447 314.508 574.355 314.444L554.824 313.284Z"/><path fill="#000" fill-opacity=".5" d="M554.874 312.405L574.404 313.565C575.963 313.656 577.185 315.023 577.128 316.616L577.107 317.487L577.085 319.065C577.044 321.41 576.961 322.719 576.709 324.332C576.229 327.397 575.232 329.843 573.506 331.641C571.209 334.034 567.85 334.331 560.714 333.566C556.154 333.078 552.604 329.985 552.057 325.677C551.668 322.607 551.632 318.969 551.818 315.196C551.9 313.56 553.272 312.31 554.874 312.405ZM554.824 313.284C553.757 313.221 552.837 314.005 552.694 315.063L552.677 315.241C552.494 318.965 552.529 322.557 552.91 325.563C553.403 329.44 556.619 332.242 560.803 332.69L561.737 332.786C567.958 333.395 570.952 333.045 572.892 331.024C574.475 329.375 575.405 327.093 575.859 324.193L575.943 323.617C576.123 322.294 576.189 321.061 576.224 319.04L576.263 316.716C576.265 316.672 576.266 316.628 576.268 316.584C576.308 315.47 575.447 314.508 574.355 314.444L554.824 313.284Z"/><path fill="#1443BD" d="M521.848 310.221L543.958 311.533C545.223 311.608 546.189 312.708 546.131 314.004C545.914 318.906 544.197 326.213 541.893 329.737C539.899 332.787 529.192 333.097 524.299 330.093C521.001 327.411 519.949 315.261 521.412 310.527C521.472 310.335 521.651 310.209 521.848 310.221ZM522.142 311.12L522.086 311.335C520.946 316.111 521.998 327.097 524.788 329.371C529.287 332.129 539.487 331.833 541.177 329.247C543.377 325.882 545.06 318.72 545.271 313.964C545.307 313.149 544.702 312.46 543.908 312.413L522.142 311.12Z"/><path fill="#000" fill-opacity=".5" d="M521.848 310.221L543.958 311.533C545.223 311.608 546.189 312.708 546.131 314.004C545.914 318.906 544.197 326.213 541.893 329.737C539.899 332.787 529.192 333.097 524.299 330.093C521.001 327.411 519.949 315.261 521.412 310.527C521.472 310.335 521.651 310.209 521.848 310.221ZM522.142 311.12L522.086 311.335C520.946 316.111 521.998 327.097 524.788 329.371C529.287 332.129 539.487 331.833 541.177 329.247C543.377 325.882 545.06 318.72 545.271 313.964C545.307 313.149 544.702 312.46 543.908 312.413L522.142 311.12Z"/><path fill="#FFC999" fill-rule="evenodd" d="M586.289 315.683C588.836 313.095 592.728 312.439 595.417 315.53C599.749 320.51 595.327 338.642 583.391 339.181C578.875 338.455 582.312 319.722 586.289 315.683Z" clip-rule="evenodd"/><path fill="#1443BD" fill-rule="evenodd" d="M598.555 542.663C598.555 542.663 609.26 487.823 613.998 467.564C618.735 447.304 625.93 398.798 617.751 395.167C609.571 391.535 589.986 383.822 589.986 383.822C589.986 383.822 570.557 386.376 553.007 390.2C539.115 393.228 543.059 379.88 526.216 382.727C519.083 383.935 496.697 387.545 485.521 393.784C481.039 396.286 481.762 411.478 481.125 426.245C479.094 473.381 490.333 545.599 490.333 545.599C490.333 545.599 483.668 552.608 491.748 561.698C495.751 565.954 513.086 564.512 535.275 564.567C560.534 564.63 590.246 567.876 595.758 562.961C606.113 553.729 598.555 542.663 598.555 542.663Z" clip-rule="evenodd"/><path fill="#fff" fill-opacity=".5" fill-rule="evenodd" d="M598.555 542.663C598.555 542.663 609.26 487.823 613.998 467.564C618.735 447.304 625.93 398.798 617.751 395.167C609.571 391.535 589.986 383.822 589.986 383.822C589.986 383.822 570.557 386.376 553.007 390.2C539.115 393.228 543.059 379.88 526.216 382.727C519.083 383.935 496.697 387.545 485.521 393.784C481.039 396.286 481.762 411.478 481.125 426.245C479.094 473.381 490.333 545.599 490.333 545.599C490.333 545.599 483.668 552.608 491.748 561.698C495.751 565.954 513.086 564.512 535.275 564.567C560.534 564.63 590.246 567.876 595.758 562.961C606.113 553.729 598.555 542.663 598.555 542.663Z" clip-rule="evenodd"/><path fill="#1443BD" fill-rule="evenodd" d="M533.363 375.644L550.297 392.28L529.977 406.837L521.172 384.654L533.363 375.644Z" clip-rule="evenodd"/><path fill="#fff" fill-opacity=".5" fill-rule="evenodd" d="M533.363 375.644L550.297 392.28L529.977 406.837L521.172 384.654L533.363 375.644Z" clip-rule="evenodd"/><path fill="#2A84C6" fill-rule="evenodd" d="M579.661 1001.71L544.065 656.892L542.647 656.178L505.282 1002.5C505.282 1002.5 477.424 1009.11 462.702 1000.07C462.128 932.918 477.579 714.79 484.118 615.176C485.17 599.138 489.987 577.34 490.949 571.28C535.676 563.545 596.271 574.699 596.271 574.699L598.889 582.74C599.398 584.304 599.707 585.931 599.804 587.576L627.889 998.305C627.889 998.305 600.36 1008.5 579.661 1001.71Z" clip-rule="evenodd"/><path fill="#fff" fill-opacity=".85" fill-rule="evenodd" d="M579.661 1001.71L544.065 656.892L542.647 656.178L505.282 1002.5C505.282 1002.5 477.424 1009.11 462.702 1000.07C462.128 932.918 477.579 714.79 484.118 615.176C485.17 599.138 489.987 577.34 490.949 571.28C535.676 563.545 596.271 574.699 596.271 574.699L598.889 582.74C599.398 584.304 599.707 585.931 599.804 587.576L627.889 998.305C627.889 998.305 600.36 1008.5 579.661 1001.71Z" clip-rule="evenodd"/><path fill="#1443BD" d="M519.843 642.829C519.523 642.668 519.136 642.804 518.979 643.132C518.84 643.424 518.93 643.769 519.176 643.955L519.276 644.016L546.233 657.497C546.553 657.657 546.94 657.521 547.097 657.193C547.236 656.902 547.147 656.557 546.9 656.371L546.8 656.309L519.843 642.829Z"/><path fill="#fff" fill-opacity=".5" d="M519.843 642.829C519.523 642.668 519.136 642.804 518.979 643.132C518.84 643.424 518.93 643.769 519.176 643.955L519.276 644.016L546.233 657.497C546.553 657.657 546.94 657.521 547.097 657.193C547.236 656.902 547.147 656.557 546.9 656.371L546.8 656.309L519.843 642.829Z"/><path fill="#2A84C6" fill-rule="evenodd" d="M596.028 562.817C596.028 562.817 539.075 554.204 491.731 562.69C491.341 566.985 490.935 572.273 490.935 572.273C490.935 572.273 531.446 575.127 596.947 576.78C596.765 565.123 596.028 562.817 596.028 562.817Z" clip-rule="evenodd"/><path fill="#fff" fill-opacity=".85" fill-rule="evenodd" d="M596.028 562.817C596.028 562.817 539.075 554.204 491.731 562.69C491.341 566.985 490.935 572.273 490.935 572.273C490.935 572.273 531.446 575.127 596.947 576.78C596.765 565.123 596.028 562.817 596.028 562.817Z" clip-rule="evenodd"/><path fill="#1443BD" d="M577.578 575.129C556.832 573.401 535.536 572.737 515.649 573.753C507.291 574.18 499.406 574.9 492.071 575.94C491.718 575.99 491.471 576.324 491.52 576.686C491.569 577.047 491.895 577.3 492.248 577.25C499.543 576.216 507.391 575.498 515.713 575.073C535.537 574.06 556.779 574.723 577.474 576.446L580.758 576.73C583.974 577.017 586.98 577.315 589.745 577.614L592.847 577.961L595.055 578.227C595.265 578.253 595.426 578.274 595.534 578.288C595.888 578.335 596.212 578.079 596.257 577.717C596.303 577.355 596.053 577.024 595.699 576.977L594.425 576.818C593.533 576.709 592.514 576.59 591.376 576.463L588.948 576.199C585.494 575.833 581.686 575.471 577.578 575.129Z"/><path fill="#fff" fill-opacity=".5" d="M577.578 575.129C556.832 573.401 535.536 572.737 515.649 573.753C507.291 574.18 499.406 574.9 492.071 575.94C491.718 575.99 491.471 576.324 491.52 576.686C491.569 577.047 491.895 577.3 492.248 577.25C499.543 576.216 507.391 575.498 515.713 575.073C535.537 574.06 556.779 574.723 577.474 576.446L580.758 576.73C583.974 577.017 586.98 577.315 589.745 577.614L592.847 577.961L595.055 578.227C595.265 578.253 595.426 578.274 595.534 578.288C595.888 578.335 596.212 578.079 596.257 577.717C596.303 577.355 596.053 577.024 595.699 576.977L594.425 576.818C593.533 576.709 592.514 576.59 591.376 576.463L588.948 576.199C585.494 575.833 581.686 575.471 577.578 575.129Z"/><path fill="#1443BD" d="M577.806 560.573C557.06 558.846 535.764 558.182 515.877 559.198C507.519 559.624 499.634 560.345 492.299 561.385C491.946 561.435 491.699 561.769 491.748 562.13C491.797 562.492 492.123 562.745 492.476 562.694C499.771 561.66 507.619 560.943 515.941 560.518C535.765 559.505 557.007 560.168 577.702 561.891L579.907 562.079C583.169 562.364 586.224 562.66 589.043 562.959L592.558 563.346L595.762 563.733C596.116 563.78 596.44 563.524 596.485 563.162C596.531 562.8 596.281 562.468 595.927 562.422L594.653 562.262C593.91 562.172 593.079 562.074 592.163 561.971L589.176 561.644C585.722 561.278 581.914 560.915 577.806 560.573Z"/><path fill="#fff" fill-opacity=".5" d="M577.806 560.573C557.06 558.846 535.764 558.182 515.877 559.198C507.519 559.624 499.634 560.345 492.299 561.385C491.946 561.435 491.699 561.769 491.748 562.13C491.797 562.492 492.123 562.745 492.476 562.694C499.771 561.66 507.619 560.943 515.941 560.518C535.765 559.505 557.007 560.168 577.702 561.891L579.907 562.079C583.169 562.364 586.224 562.66 589.043 562.959L592.558 563.346L595.762 563.733C596.116 563.78 596.44 563.524 596.485 563.162C596.531 562.8 596.281 562.468 595.927 562.422L594.653 562.262C593.91 562.172 593.079 562.074 592.163 561.971L589.176 561.644C585.722 561.278 581.914 560.915 577.806 560.573Z"/><path fill="#1443BD" d="M538.966 561.481C538.609 561.472 538.313 561.761 538.304 562.126L538.233 565.575C538.205 567.055 538.178 568.686 538.152 570.453C537.937 585.09 537.924 600.619 538.245 615.168L538.325 618.478C538.674 631.912 539.309 643.176 540.275 651.623C540.316 651.985 540.637 652.245 540.991 652.202C541.346 652.16 541.599 651.831 541.558 651.469L541.405 650.082C540.455 641.142 539.848 629.256 539.537 615.138C539.241 601.726 539.229 587.475 539.398 573.862L539.455 569.725L539.595 562.159C539.604 561.794 539.322 561.491 538.966 561.481Z"/><path fill="#fff" fill-opacity=".5" d="M538.966 561.481C538.609 561.472 538.313 561.761 538.304 562.126L538.233 565.575C538.205 567.055 538.178 568.686 538.152 570.453C537.937 585.09 537.924 600.619 538.245 615.168L538.325 618.478C538.674 631.912 539.309 643.176 540.275 651.623C540.316 651.985 540.637 652.245 540.991 652.202C541.346 652.16 541.599 651.831 541.558 651.469L541.405 650.082C540.455 641.142 539.848 629.256 539.537 615.138C539.241 601.726 539.229 587.475 539.398 573.862L539.455 569.725L539.595 562.159C539.604 561.794 539.322 561.491 538.966 561.481Z"/><path fill="#fff" fill-rule="evenodd" d="M527.891 566.263C527.865 567.906 528.858 569.256 530.108 569.278C531.357 569.298 532.391 567.982 532.416 566.337C532.441 564.693 531.451 563.344 530.2 563.322C528.95 563.301 527.916 564.618 527.891 566.263Z" clip-rule="evenodd"/><path fill="#1443BD" fill-rule="evenodd" d="M550.206 390.924L565.88 412.029L589.299 383.867L580.723 372.896L550.206 390.924Z" clip-rule="evenodd"/><path fill="#fff" fill-opacity=".5" fill-rule="evenodd" d="M550.206 390.924L565.88 412.029L589.299 383.867L580.723 372.896L550.206 390.924Z" clip-rule="evenodd"/><path fill="#1443BD" d="M549.502 392.066C549.056 391.897 548.561 392.131 548.396 392.588L548.234 393.081L548.073 393.608C548.016 393.799 547.957 394.005 547.894 394.226L547.798 394.571C547.405 395.997 546.975 397.75 546.516 399.856L546.262 401.039C544.725 408.355 543.19 418.027 541.752 430.361L541.369 433.726C539.825 447.67 538.498 464.051 537.452 483.061L537.365 484.652C535.805 513.629 536.166 538.488 537.525 557.07C537.56 557.555 537.974 557.919 538.448 557.883C538.923 557.847 539.279 557.424 539.243 556.938L539.109 555.034C537.89 537.065 537.593 513.51 539.008 486.214L539.086 484.749C540.144 465.093 541.498 448.222 543.081 433.926L543.34 431.63C544.807 418.84 546.378 408.878 547.947 401.41L548.197 400.243C548.608 398.356 548.995 396.76 549.351 395.438L549.456 395.049C549.583 394.591 549.697 394.196 549.8 393.861L549.975 393.309C549.992 393.259 550.004 393.222 550.013 393.198C550.178 392.741 549.949 392.234 549.502 392.066Z"/><path fill="#000" fill-opacity=".5" d="M549.502 392.066C549.056 391.897 548.561 392.131 548.396 392.588L548.234 393.081L548.073 393.608C548.016 393.799 547.957 394.005 547.894 394.226L547.798 394.571C547.405 395.997 546.975 397.75 546.516 399.856L546.262 401.039C544.725 408.355 543.19 418.027 541.752 430.361L541.369 433.726C539.825 447.67 538.498 464.051 537.452 483.061L537.365 484.652C535.805 513.629 536.166 538.488 537.525 557.07C537.56 557.555 537.974 557.919 538.448 557.883C538.923 557.847 539.279 557.424 539.243 556.938L539.109 555.034C537.89 537.065 537.593 513.51 539.008 486.214L539.086 484.749C540.144 465.093 541.498 448.222 543.081 433.926L543.34 431.63C544.807 418.84 546.378 408.878 547.947 401.41L548.197 400.243C548.608 398.356 548.995 396.76 549.351 395.438L549.456 395.049C549.583 394.591 549.697 394.196 549.8 393.861L549.975 393.309C549.992 393.259 550.004 393.222 550.013 393.198C550.178 392.741 549.949 392.234 549.502 392.066Z"/><path fill="#1443BD" d="M481.001 422.796C480.58 422.436 479.989 422.5 479.646 422.926C479.501 423.107 479.422 423.311 479.36 423.575C479.289 423.877 479.237 424.3 479.2 424.855L479.183 425.143C479.119 426.309 479.109 428.003 479.152 430.173L479.176 431.208C479.317 436.711 479.752 444.595 480.452 454.062L480.714 457.513C482.463 480.068 485.382 508.068 489.302 538.488L489.721 541.708L489.561 542.128L489.422 542.51C489.136 543.311 488.851 544.196 488.584 545.143C487.936 547.443 487.504 549.727 487.388 551.877C487.195 555.468 487.899 558.392 489.767 560.365C490.098 560.715 490.643 560.724 490.985 560.385C491.327 560.046 491.336 559.488 491.005 559.139C489.532 557.583 488.939 555.122 489.109 551.974C489.217 549.973 489.625 547.814 490.24 545.632C490.444 544.907 490.659 544.22 490.877 543.583L491.17 542.757C491.27 542.487 491.348 542.288 491.398 542.168C491.458 542.023 491.478 541.864 491.458 541.708L490.79 536.54C486.912 506.242 484.037 478.423 482.334 456.106L482.104 453.021C481.488 444.587 481.09 437.466 480.929 432.25L480.876 430.206C480.835 428.198 480.841 426.609 480.891 425.491L480.903 425.241C480.923 424.88 480.947 424.582 480.976 424.352L481.006 424.14L481.019 424.132L481.108 424.038C481.414 423.665 481.365 423.109 481.001 422.796Z"/><path fill="#000" fill-opacity=".5" d="M481.001 422.796C480.58 422.436 479.989 422.5 479.646 422.926C479.501 423.107 479.422 423.311 479.36 423.575C479.289 423.877 479.237 424.3 479.2 424.855L479.183 425.143C479.119 426.309 479.109 428.003 479.152 430.173L479.176 431.208C479.317 436.711 479.752 444.595 480.452 454.062L480.714 457.513C482.463 480.068 485.382 508.068 489.302 538.488L489.721 541.708L489.561 542.128L489.422 542.51C489.136 543.311 488.851 544.196 488.584 545.143C487.936 547.443 487.504 549.727 487.388 551.877C487.195 555.468 487.899 558.392 489.767 560.365C490.098 560.715 490.643 560.724 490.985 560.385C491.327 560.046 491.336 559.488 491.005 559.139C489.532 557.583 488.939 555.122 489.109 551.974C489.217 549.973 489.625 547.814 490.24 545.632C490.444 544.907 490.659 544.22 490.877 543.583L491.17 542.757C491.27 542.487 491.348 542.288 491.398 542.168C491.458 542.023 491.478 541.864 491.458 541.708L490.79 536.54C486.912 506.242 484.037 478.423 482.334 456.106L482.104 453.021C481.488 444.587 481.09 437.466 480.929 432.25L480.876 430.206C480.835 428.198 480.841 426.609 480.891 425.491L480.903 425.241C480.923 424.88 480.947 424.582 480.976 424.352L481.006 424.14L481.019 424.132L481.108 424.038C481.414 423.665 481.365 423.109 481.001 422.796Z"/><path fill="#1443BD" d="M524.911 418.979L526.095 419.083C526.478 419.119 526.849 419.155 527.206 419.191L528.953 419.381L529.487 419.447C529.96 419.509 530.304 419.936 530.273 420.422L528.187 453.315C528.167 453.627 527.994 453.908 527.727 454.06L510.315 464.029C510.017 464.2 509.649 464.184 509.366 463.986L495.917 454.59C495.671 454.418 495.524 454.133 495.523 453.829L495.536 447.843L495.556 444.025C495.599 437.411 495.678 430.049 495.803 422.071C495.809 421.715 496.013 421.394 496.329 421.246C499.725 419.654 504.631 418.816 510.676 418.58C515.242 418.402 520.125 418.578 524.911 418.979ZM510.101 420.453C504.995 420.693 500.792 421.39 497.803 422.609L497.599 422.694L497.485 430.802C497.434 435.017 497.395 439.02 497.369 442.789L497.332 449.923L497.328 453.339L509.922 462.137L526.419 452.694L528.418 421.177L528.046 421.136C527.069 421.028 525.967 420.92 524.764 420.819C520.044 420.424 515.229 420.251 510.744 420.426L510.101 420.453Z"/><path fill="#000" fill-opacity=".5" d="M524.911 418.979L526.095 419.083C526.478 419.119 526.849 419.155 527.206 419.191L528.953 419.381L529.487 419.447C529.96 419.509 530.304 419.936 530.273 420.422L528.187 453.315C528.167 453.627 527.994 453.908 527.727 454.06L510.315 464.029C510.017 464.2 509.649 464.184 509.366 463.986L495.917 454.59C495.671 454.418 495.524 454.133 495.523 453.829L495.536 447.843L495.556 444.025C495.599 437.411 495.678 430.049 495.803 422.071C495.809 421.715 496.013 421.394 496.329 421.246C499.725 419.654 504.631 418.816 510.676 418.58C515.242 418.402 520.125 418.578 524.911 418.979ZM510.101 420.453C504.995 420.693 500.792 421.39 497.803 422.609L497.599 422.694L497.485 430.802C497.434 435.017 497.395 439.02 497.369 442.789L497.332 449.923L497.328 453.339L509.922 462.137L526.419 452.694L528.418 421.177L528.046 421.136C527.069 421.028 525.967 420.92 524.764 420.819C520.044 420.424 515.229 420.251 510.744 420.426L510.101 420.453Z"/><path fill="#fff" fill-rule="evenodd" d="M548.987 406.788C548.962 408.433 550.026 409.782 551.365 409.805C552.704 409.827 553.81 408.512 553.837 406.867C553.862 405.224 552.798 403.872 551.459 403.85C550.118 403.828 549.012 405.142 548.987 406.788Z" clip-rule="evenodd"/><path fill="#fff" fill-rule="evenodd" d="M545.118 437C545.092 438.643 546.157 439.995 547.496 440.017C548.835 440.039 549.941 438.725 549.968 437.08C549.993 435.436 548.928 434.085 547.59 434.062C546.249 434.04 545.143 435.355 545.118 437Z" clip-rule="evenodd"/><path fill="#fff" fill-rule="evenodd" d="M542.664 469.718C542.639 471.363 543.703 472.713 545.042 472.735C546.381 472.757 547.487 471.443 547.514 469.798C547.539 468.154 546.475 466.803 545.136 466.781C543.795 466.758 542.689 468.075 542.664 469.718Z" clip-rule="evenodd"/><path fill="#fff" fill-rule="evenodd" d="M541.695 500.476C541.67 502.12 542.734 503.471 544.073 503.494C545.412 503.516 546.518 502.201 546.545 500.556C546.57 498.913 545.506 497.561 544.167 497.539C542.828 497.517 541.722 498.831 541.695 500.476Z" clip-rule="evenodd"/><path fill="#fff" fill-rule="evenodd" d="M541.542 541.173C541.517 542.818 542.582 544.168 543.92 544.19C545.259 544.212 546.365 542.898 546.392 541.253C546.418 539.609 545.353 538.258 544.014 538.236C542.674 538.213 541.568 539.528 541.542 541.173Z" clip-rule="evenodd"/><path fill="#1443BD" d="M589.553 384.056C589.223 383.769 588.744 383.781 588.428 384.065L588.339 384.158L566.362 410.678L550.672 392.001C550.39 391.665 549.915 391.6 549.56 391.829L549.457 391.907C549.129 392.195 549.065 392.682 549.289 393.045L549.365 393.15L565.712 412.611C566.029 412.988 566.578 413.018 566.932 412.702L567.023 412.607L589.653 385.298C589.961 384.927 589.916 384.371 589.553 384.056Z"/><path fill="#000" fill-opacity=".5" d="M589.553 384.056C589.223 383.769 588.744 383.781 588.428 384.065L588.339 384.158L566.362 410.678L550.672 392.001C550.39 391.665 549.915 391.6 549.56 391.829L549.457 391.907C549.129 392.195 549.065 392.682 549.289 393.045L549.365 393.15L565.712 412.611C566.029 412.988 566.578 413.018 566.932 412.702L567.023 412.607L589.653 385.298C589.961 384.927 589.916 384.371 589.553 384.056Z"/><path fill="#1443BD" d="M523.95 385.25C523.806 384.786 523.321 384.53 522.868 384.677C522.452 384.813 522.207 385.241 522.28 385.668L522.308 385.785L529.156 407.798C529.325 408.342 529.939 408.571 530.405 408.296L530.503 408.229L549.903 392.933C550.28 392.636 550.35 392.082 550.059 391.697C549.795 391.346 549.324 391.255 548.958 391.464L548.851 391.536L530.425 406.064L523.95 385.25Z"/><path fill="#000" fill-opacity=".5" d="M523.95 385.25C523.806 384.786 523.321 384.53 522.868 384.677C522.452 384.813 522.207 385.241 522.28 385.668L522.308 385.785L529.156 407.798C529.325 408.342 529.939 408.571 530.405 408.296L530.503 408.229L549.903 392.933C550.28 392.636 550.35 392.082 550.059 391.697C549.795 391.346 549.324 391.255 548.958 391.464L548.851 391.536L530.425 406.064L523.95 385.25Z"/><path fill="#1443BD" d="M524.794 574.221C524.441 574.167 524.112 574.417 524.06 574.778L523.893 576.039L523.853 576.362C523.699 577.629 523.545 579.062 523.401 580.633C522.745 587.808 522.522 595.21 522.988 602.132C524.077 618.279 528.669 628.525 537.987 629.824C538.34 629.873 538.666 629.62 538.714 629.258C538.762 628.896 538.515 628.563 538.161 628.514C529.68 627.332 525.328 617.619 524.277 602.041C523.816 595.2 524.038 587.866 524.688 580.756L524.812 579.456C524.896 578.612 524.983 577.816 525.07 577.073L525.212 575.908L525.337 574.973C525.39 574.612 525.147 574.275 524.794 574.221Z"/><path fill="#fff" fill-opacity=".5" d="M524.794 574.221C524.441 574.167 524.112 574.417 524.06 574.778L523.893 576.039L523.853 576.362C523.699 577.629 523.545 579.062 523.401 580.633C522.745 587.808 522.522 595.21 522.988 602.132C524.077 618.279 528.669 628.525 537.987 629.824C538.34 629.873 538.666 629.62 538.714 629.258C538.762 628.896 538.515 628.563 538.161 628.514C529.68 627.332 525.328 617.619 524.277 602.041C523.816 595.2 524.038 587.866 524.688 580.756L524.812 579.456C524.896 578.612 524.983 577.816 525.07 577.073L525.212 575.908L525.337 574.973C525.39 574.612 525.147 574.275 524.794 574.221Z"/><path fill="#DD936F" d="M591.666 318.188C591.532 317.85 591.156 317.686 590.825 317.823L590.599 317.925C590.464 317.99 590.299 318.076 590.111 318.182C589.592 318.474 589.074 318.829 588.588 319.249C586.799 320.795 585.902 322.797 586.454 325.222C586.663 326.14 587.075 326.63 587.843 327.098L588.173 327.288C588.832 327.657 588.997 327.839 589.057 328.411C589.174 329.51 588.686 330.331 587.748 330.96C587.436 331.169 587.098 331.339 586.76 331.471L586.457 331.579C586.404 331.596 586.361 331.608 586.331 331.616C585.984 331.703 585.772 332.06 585.857 332.415C585.941 332.77 586.291 332.987 586.638 332.9C587.107 332.783 587.778 332.521 588.457 332.065C589.765 331.187 590.517 329.923 590.342 328.269C590.233 327.245 589.842 326.751 588.984 326.238L588.666 326.057C588.059 325.714 587.84 325.483 587.712 324.922C587.285 323.044 587.971 321.512 589.421 320.259C589.838 319.899 590.286 319.592 590.735 319.34C591.001 319.19 591.203 319.093 591.31 319.049C591.64 318.912 591.8 318.526 591.666 318.188Z"/><path fill="#1443BD" d="M513.324 654.099C512.968 654.075 512.661 654.352 512.639 654.716C512.618 655.044 512.835 655.331 513.138 655.403L513.242 655.418L534.56 656.808C534.917 656.832 535.224 656.555 535.246 656.191C535.267 655.863 535.05 655.576 534.747 655.504L534.643 655.489L513.324 654.099Z"/><path fill="#fff" fill-opacity=".5" d="M513.324 654.099C512.968 654.075 512.661 654.352 512.639 654.716C512.618 655.044 512.835 655.331 513.138 655.403L513.242 655.418L534.56 656.808C534.917 656.832 535.224 656.555 535.246 656.191C535.267 655.863 535.05 655.576 534.747 655.504L534.643 655.489L513.324 654.099Z"/><path fill="#FFC999" fill-rule="evenodd" d="M364.719 377.13C364.719 377.13 346.16 320.516 325.147 306.775C318.891 307.011 324.757 315.444 329.111 322.344C331.337 325.872 332.806 330.329 332.806 330.329C332.806 330.329 324.226 329.412 325.872 336.864C318.998 336.524 321.486 344.397 321.486 344.397C321.486 344.397 316.201 344.408 317.901 351.722C319.068 356.75 325.688 362.684 327.205 367.974C333.057 388.373 342.669 389.501 346.528 390.127C356.297 391.708 362.294 387.902 364.719 377.13Z" clip-rule="evenodd"/><path fill="#DD936F" d="M352.662 351.564L345.139 334.894L344.952 334.173C343.287 328.056 340.65 325.552 338.391 327.761C336.448 329.66 336.105 334.507 337.845 338.913C341.309 347.682 341.658 351.741 340.413 356.526L340.001 358.057C339.77 358.963 339.636 359.691 339.58 360.463C339.341 363.775 339.499 366.859 340.4 369.834C341.715 374.18 344.437 377.242 348.859 378.478C349.204 378.574 349.559 378.367 349.653 378.014C349.747 377.662 349.544 377.299 349.2 377.203C342.201 375.247 340.268 368.864 340.869 360.56C340.911 359.977 341.005 359.414 341.165 358.739L341.343 358.042C341.399 357.83 341.47 357.572 341.576 357.188L341.741 356.554C342.964 351.615 342.536 347.261 339.043 338.417C337.481 334.463 337.784 330.182 339.283 328.717C340.492 327.535 342.278 329.238 343.731 334.582L343.927 335.334L351.489 352.118C351.638 352.449 352.022 352.594 352.346 352.441C352.634 352.305 352.778 351.98 352.701 351.677L352.662 351.564Z"/><path fill="#DD936F" d="M325.587 336.271C325.267 336.431 325.135 336.827 325.291 337.155L325.536 337.654C325.733 338.046 325.956 338.484 326.204 338.955C326.912 340.301 327.671 341.647 328.452 342.906C329.288 344.254 330.102 345.422 330.878 346.361C332.461 348.274 333.844 349.212 335.111 348.815C337.958 347.922 338.831 345.778 338.119 342.991C337.849 341.935 337.364 340.827 336.727 339.702C336.38 339.087 336.008 338.506 335.636 337.975L335.338 337.561C335.253 337.446 335.183 337.355 335.131 337.289C334.906 337.006 334.499 336.963 334.222 337.193C333.945 337.424 333.904 337.84 334.129 338.123L334.394 338.476C334.452 338.556 334.516 338.646 334.586 338.745C334.935 339.243 335.284 339.79 335.609 340.364C336.193 341.395 336.632 342.4 336.869 343.326C337.42 345.482 336.847 346.888 334.733 347.551C334.157 347.731 333.127 347.033 331.864 345.507C331.131 344.62 330.35 343.498 329.543 342.197C328.78 340.968 328.036 339.648 327.342 338.328L326.995 337.661L326.452 336.573C326.295 336.246 325.908 336.11 325.587 336.271Z"/><path fill="#DD936F" d="M322.418 344.566C322.304 344.22 321.937 344.035 321.599 344.152C321.261 344.269 321.08 344.644 321.195 344.99L321.34 345.403L321.532 345.912C321.601 346.09 321.675 346.275 321.755 346.467C322.207 347.567 322.73 348.667 323.32 349.698C325.152 352.899 327.22 354.789 329.58 354.599C331.901 354.411 332.985 352.858 333.047 350.569C333.069 349.736 332.957 348.858 332.757 347.987C332.648 347.512 332.538 347.142 332.461 346.923C332.341 346.579 331.972 346.4 331.636 346.522C331.3 346.645 331.125 347.023 331.245 347.367L331.316 347.59C331.37 347.77 331.435 348.008 331.499 348.29C331.676 349.058 331.774 349.828 331.755 350.532C331.71 352.21 331.051 353.154 329.478 353.281C327.775 353.418 326.038 351.83 324.435 349.03C323.876 348.054 323.377 347.005 322.945 345.955L322.733 345.424L322.468 344.71C322.446 344.647 322.429 344.599 322.418 344.566Z"/><path fill="#DD936F" d="M317.563 349.992C317.217 350.079 317.004 350.437 317.089 350.791L317.188 351.169L317.37 351.796C317.404 351.907 317.439 352.021 317.477 352.137C317.798 353.138 318.184 354.139 318.639 355.078C320.324 358.559 322.51 360.372 325.225 359.307C327.148 358.553 327.902 357.141 327.611 355.397C327.469 354.544 327.088 353.663 326.545 352.779C326.307 352.392 326.053 352.03 325.799 351.702L325.56 351.403C325.516 351.351 325.479 351.308 325.449 351.274C325.209 351.005 324.801 350.985 324.537 351.231C324.273 351.477 324.254 351.895 324.494 352.165L324.641 352.339C324.684 352.392 324.733 352.453 324.787 352.523C325.013 352.816 325.24 353.139 325.452 353.483C325.912 354.232 326.228 354.965 326.338 355.62C326.526 356.751 326.101 357.547 324.762 358.073C322.881 358.811 321.221 357.434 319.797 354.491C319.372 353.614 319.008 352.67 318.704 351.725C318.633 351.504 318.57 351.294 318.512 351.097L318.344 350.477C318.269 350.162 317.984 349.955 317.678 349.974L317.563 349.992Z"/><path fill="#1443BD" d="M419.814 446.475C419.407 446.727 419.277 447.269 419.524 447.686L420.499 449.303L421.418 450.799C422.168 452.013 422.986 453.318 423.865 454.697C427.213 459.951 430.75 465.206 434.317 470.113C436.901 473.668 439.408 476.908 441.806 479.763C446.375 485.204 450.421 489.101 453.838 491.154C454.076 491.298 454.365 491.314 454.614 491.204L454.735 491.139L482.933 472.856C483.335 472.595 483.455 472.05 483.2 471.639C482.968 471.265 482.507 471.13 482.124 471.304L482.011 471.366L454.266 489.356L454.035 489.208C451.065 487.248 447.534 483.819 443.572 479.157L443.113 478.614C440.744 475.792 438.261 472.584 435.7 469.061C432.155 464.186 428.638 458.96 425.308 453.734L424.454 452.387C423.76 451.287 423.11 450.241 422.508 449.262L421.608 447.789L420.997 446.772C420.751 446.355 420.221 446.222 419.814 446.475Z"/><path fill="#000" fill-opacity=".5" d="M419.814 446.475C419.407 446.727 419.277 447.269 419.524 447.686L420.499 449.303L421.418 450.799C422.168 452.013 422.986 453.318 423.865 454.697C427.213 459.951 430.75 465.206 434.317 470.113C436.901 473.668 439.408 476.908 441.806 479.763C446.375 485.204 450.421 489.101 453.838 491.154C454.076 491.298 454.365 491.314 454.614 491.204L454.735 491.139L482.933 472.856C483.335 472.595 483.455 472.05 483.2 471.639C482.968 471.265 482.507 471.13 482.124 471.304L482.011 471.366L454.266 489.356L454.035 489.208C451.065 487.248 447.534 483.819 443.572 479.157L443.113 478.614C440.744 475.792 438.261 472.584 435.7 469.061C432.155 464.186 428.638 458.96 425.308 453.734L424.454 452.387C423.76 451.287 423.11 450.241 422.508 449.262L421.608 447.789L420.997 446.772C420.751 446.355 420.221 446.222 419.814 446.475Z"/><path fill="#DD936F" d="M407.856 449.622C407.69 449.298 407.3 449.174 406.984 449.344C406.703 449.495 406.576 449.827 406.668 450.126L406.712 450.237L421.863 479.744C422.029 480.067 422.42 480.192 422.736 480.022C423.016 479.871 423.144 479.538 423.052 479.239L423.007 479.129L407.856 449.622Z"/><path fill="#FFC999" fill-rule="evenodd" d="M656.722 548.946C668.028 544.125 673.69 531.111 669.625 519.288L632.799 412.189C627.382 396.439 610.141 388.585 595.079 395.006C580.193 401.353 573.45 419.091 580.231 434.062L626.889 537.069C632.104 548.584 645.275 553.826 656.722 548.946Z" clip-rule="evenodd"/><path fill="#1443BD" fill-rule="evenodd" d="M655.197 476.676L632.125 408.725C625.508 393.957 601.181 388.098 586.869 395.131C572.558 402.164 566.665 419.842 573.793 434.358L606.354 500.681C606.354 500.681 642.902 491.968 655.197 476.676Z" clip-rule="evenodd"/><path fill="#fff" fill-opacity=".5" fill-rule="evenodd" d="M655.197 476.676L632.125 408.725C625.508 393.957 601.181 388.098 586.869 395.131C572.558 402.164 566.665 419.842 573.793 434.358L606.354 500.681C606.354 500.681 642.902 491.968 655.197 476.676Z" clip-rule="evenodd"/><path fill="#1443BD" d="M588.934 450.624C588.747 450.176 588.241 449.967 587.803 450.158C587.405 450.331 587.201 450.775 587.307 451.191L587.348 451.314L607.67 500.181C607.845 500.601 608.302 500.815 608.726 500.676L610.52 500.068L612.179 499.49C613.523 499.016 614.97 498.494 616.499 497.928C622.324 495.771 628.15 493.418 633.591 490.945L635.161 490.223C643.427 486.377 649.907 482.615 653.996 479.04C654.672 478.449 655.281 477.864 655.821 477.285C656.149 476.933 656.136 476.375 655.792 476.039C655.448 475.703 654.902 475.716 654.574 476.068C654.076 476.602 653.51 477.146 652.877 477.699C648.69 481.361 641.767 485.3 632.891 489.334C627.492 491.787 621.703 494.126 615.913 496.27L614.421 496.818C613.201 497.262 612.043 497.675 610.958 498.054L608.947 498.747L588.934 450.624Z"/><path fill="#000" fill-opacity=".5" d="M588.934 450.624C588.747 450.176 588.241 449.967 587.803 450.158C587.405 450.331 587.201 450.775 587.307 451.191L587.348 451.314L607.67 500.181C607.845 500.601 608.302 500.815 608.726 500.676L610.52 500.068L612.179 499.49C613.523 499.016 614.97 498.494 616.499 497.928C622.324 495.771 628.15 493.418 633.591 490.945L635.161 490.223C643.427 486.377 649.907 482.615 653.996 479.04C654.672 478.449 655.281 477.864 655.821 477.285C656.149 476.933 656.136 476.375 655.792 476.039C655.448 475.703 654.902 475.716 654.574 476.068C654.076 476.602 653.51 477.146 652.877 477.699C648.69 481.361 641.767 485.3 632.891 489.334C627.492 491.787 621.703 494.126 615.913 496.27L614.421 496.818C613.201 497.262 612.043 497.675 610.958 498.054L608.947 498.747L588.934 450.624Z"/><path fill="#FFC999" fill-rule="evenodd" d="M514.874 536.125C515.538 543.005 521.12 548.293 527.876 548.443L646.619 551.065C660.254 551.366 671.169 539.561 670.121 525.645C669.097 512.044 657.054 502.158 643.857 504.086L526.277 521.252C519.197 522.286 514.17 528.843 514.874 536.125Z" clip-rule="evenodd"/><path fill="#2A84C6" fill-rule="evenodd" d="M524.592 567.372L498.485 483.801C498.054 482.422 496.813 481.48 495.398 481.462L422.191 480.448C419.917 480.417 418.301 482.701 419.039 484.902L446.291 566.253C446.73 567.562 447.906 568.461 449.256 568.522L521.317 571.757C523.603 571.858 525.289 569.602 524.592 567.372Z" clip-rule="evenodd"/><path fill="#000" fill-opacity=".2" fill-rule="evenodd" d="M524.592 567.372L498.485 483.801C498.054 482.422 496.813 481.48 495.398 481.462L422.191 480.448C419.917 480.417 418.301 482.701 419.039 484.902L446.291 566.253C446.73 567.562 447.906 568.461 449.256 568.522L521.317 571.757C523.603 571.858 525.289 569.602 524.592 567.372Z" clip-rule="evenodd"/><path fill="#1443BD" fill-rule="evenodd" d="M520.733 566.353L495.081 484.238C494.56 482.57 493.055 481.429 491.342 481.405L417.231 480.378C415.642 480.358 414.51 481.955 415.026 483.494L442.658 565.971C443.143 567.421 444.444 568.418 445.94 568.484L516.767 571.664C519.535 571.787 521.578 569.053 520.733 566.353Z" clip-rule="evenodd"/><path fill="#000" fill-opacity=".5" fill-rule="evenodd" d="M520.733 566.353L495.081 484.238C494.56 482.57 493.055 481.429 491.342 481.405L417.231 480.378C415.642 480.358 414.51 481.955 415.026 483.494L442.658 565.971C443.143 567.421 444.444 568.418 445.94 568.484L516.767 571.664C519.535 571.787 521.578 569.053 520.733 566.353Z" clip-rule="evenodd"/><path fill="#2A84C6" fill-rule="evenodd" d="M485.046 489.318C484.217 490.262 484.515 491.918 485.711 493.02C486.908 494.121 488.55 494.248 489.38 493.306C490.208 492.363 489.91 490.705 488.714 489.604C487.518 488.502 485.874 488.375 485.046 489.318Z" clip-rule="evenodd"/><path fill="#fff" fill-opacity=".85" fill-rule="evenodd" d="M485.046 489.318C484.217 490.262 484.515 491.918 485.711 493.02C486.908 494.121 488.55 494.248 489.38 493.306C490.208 492.363 489.91 490.705 488.714 489.604C487.518 488.502 485.874 488.375 485.046 489.318Z" clip-rule="evenodd"/><path fill="#2A84C6" fill-rule="evenodd" d="M486.03 490.304C485.599 490.794 485.754 491.654 486.374 492.227C486.997 492.797 487.848 492.864 488.28 492.374C488.709 491.885 488.554 491.024 487.933 490.452C487.313 489.882 486.459 489.815 486.03 490.304Z" clip-rule="evenodd"/><path fill="#fff" fill-opacity=".85" fill-rule="evenodd" d="M486.03 490.304C485.599 490.794 485.754 491.654 486.374 492.227C486.997 492.797 487.848 492.864 488.28 492.374C488.709 491.885 488.554 491.024 487.933 490.452C487.313 489.882 486.459 489.815 486.03 490.304Z" clip-rule="evenodd"/><path fill="#FFC999" fill-rule="evenodd" d="M492.004 551.657C487.798 551.24 485.586 549.439 485.985 545.854C480.925 544.225 481.49 539.84 481.49 539.84C481.49 539.84 471.752 539.687 470.114 535.429C469.477 533.774 470.713 532.006 472.445 531.886C493.309 530.438 508.185 519.125 508.185 519.125C508.185 519.125 499.983 506.8 500.851 501.111C501.107 499.429 503.256 498.886 504.261 500.244C512.862 511.859 530.11 520.968 530.11 520.968C530.11 520.968 550.815 540.819 528.356 549.82C528.356 549.82 511.235 556.801 499.315 555.917C493.671 555.499 492.004 551.657 492.004 551.657Z" clip-rule="evenodd"/><path fill="#DD936F" d="M496.835 536.057C496.661 535.738 496.267 535.624 495.956 535.802C494.462 536.657 492.716 537.353 490.768 537.904C488.448 538.559 485.955 538.979 483.448 539.207L482.685 539.27C481.703 539.345 480.861 539.379 480.204 539.387L479.719 539.389C479.363 539.384 479.07 539.676 479.065 540.041C479.06 540.369 479.291 540.645 479.597 540.701L479.702 540.711L479.968 540.711C480.841 540.709 482.078 540.658 483.562 540.523C486.142 540.289 488.709 539.857 491.112 539.178C493.153 538.601 494.994 537.867 496.586 536.956C496.897 536.778 497.009 536.375 496.835 536.057Z"/><path fill="#DD936F" d="M498.798 542.618C498.643 542.289 498.256 542.151 497.935 542.31C497.743 542.405 497.549 542.498 497.353 542.588C494.876 543.732 492.215 544.466 489.544 544.868C487.894 545.117 486.572 545.197 485.749 545.191C485.383 545.186 485.089 545.478 485.084 545.843C485.08 546.172 485.311 546.447 485.617 546.503L485.722 546.513H485.953L486.431 546.502C487.283 546.471 488.409 546.376 489.732 546.176C492.514 545.757 495.288 544.992 497.884 543.794C498.09 543.698 498.295 543.601 498.498 543.5C498.819 543.342 498.953 542.946 498.798 542.618Z"/><path fill="#DD936F" d="M502.511 549.948C502.356 549.62 501.969 549.482 501.648 549.641C500.961 549.981 499.339 550.298 497.133 550.559C496.005 550.692 494.794 550.803 493.583 550.892L491.971 550.998C491.615 551.016 491.341 551.327 491.359 551.691C491.377 552.056 491.68 552.336 492.037 552.318L493.36 552.234L493.676 552.211C494.904 552.12 496.132 552.008 497.281 551.872L498.086 551.771C500.03 551.514 501.445 551.21 502.211 550.831C502.532 550.672 502.666 550.277 502.511 549.948Z"/><path fill="#DD936F" d="M643.769 503.431L529.122 519.457C528.769 519.507 528.521 519.84 528.569 520.202C528.613 520.527 528.881 520.765 529.192 520.773L529.297 520.767L643.944 504.74C644.298 504.691 644.545 504.358 644.497 503.996C644.453 503.67 644.185 503.433 643.874 503.425L643.769 503.431Z"/><g filter="url(#filter3_ddddd_114_5518)"><path fill="#fff" d="M172.829 361.421H74.1021C72.1543 361.421 70.5753 363.037 70.5753 365.03V435.006C70.5753 436.999 72.1543 438.615 74.1021 438.615H172.829C174.777 438.615 176.356 436.999 176.356 435.006V365.03C176.356 363.037 174.777 361.421 172.829 361.421Z"/></g><path fill="#fff" d="M156.517 429.274C158.047 429.274 159.287 426.595 159.287 423.29C159.287 419.985 158.047 417.306 156.517 417.306C154.987 417.306 153.747 419.985 153.747 423.29C153.747 426.595 154.987 429.274 156.517 429.274Z"/><path fill="#1443BD" d="M176.306 385.028H70.6259V396.222H176.306V385.028Z"/><path fill="#000" fill-opacity=".5" d="M176.306 385.028H70.6259V396.222H176.306V385.028Z"/><path fill="#1443BD" d="M114.732 407.823H79.296C78.6467 407.823 78.1204 408.361 78.1204 409.026V410.486C78.1204 411.151 78.6467 411.689 79.296 411.689H114.732C115.381 411.689 115.907 411.151 115.907 410.486V409.026C115.907 408.361 115.381 407.823 114.732 407.823Z"/><path fill="#fff" fill-opacity=".2" d="M114.732 407.823H79.296C78.6467 407.823 78.1204 408.361 78.1204 409.026V410.486C78.1204 411.151 78.6467 411.689 79.296 411.689H114.732C115.381 411.689 115.907 411.151 115.907 410.486V409.026C115.907 408.361 115.381 407.823 114.732 407.823Z"/><path fill="#1443BD" d="M99.735 419.423H79.296C78.6467 419.423 78.1204 419.962 78.1204 420.626V422.087C78.1204 422.752 78.6467 423.29 79.296 423.29H99.735C100.384 423.29 100.911 422.752 100.911 422.087V420.626C100.911 419.962 100.384 419.423 99.735 419.423Z"/><path fill="#fff" fill-opacity=".2" d="M99.735 419.423H79.296C78.6467 419.423 78.1204 419.962 78.1204 420.626V422.087C78.1204 422.752 78.6467 423.29 79.296 423.29H99.735C100.384 423.29 100.911 422.752 100.911 422.087V420.626C100.911 419.962 100.384 419.423 99.735 419.423Z"/><path fill="#1443BD" d="M88.3399 369.2H79.296C78.6467 369.2 78.1204 369.739 78.1204 370.403V375.685C78.1204 376.349 78.6467 376.888 79.296 376.888H88.3399C88.9892 376.888 89.5155 376.349 89.5155 375.685V370.403C89.5155 369.739 88.9892 369.2 88.3399 369.2Z"/><path fill="#F56D7E" d="M153.746 423.29C153.744 420.97 154.762 418.773 156.518 417.306C153.439 414.724 148.931 415.029 146.21 418.002C143.49 420.976 143.49 425.599 146.21 428.573C148.931 431.547 153.439 431.851 156.518 429.269C154.763 427.803 153.746 425.608 153.746 423.29Z"/><path fill="#B7EE81" d="M161.304 415.557C159.558 415.554 157.866 416.173 156.518 417.306C158.269 418.775 159.285 420.971 159.285 423.288C159.285 425.605 158.269 427.8 156.518 429.269C159.092 431.43 162.745 431.613 165.513 429.719C168.28 427.824 169.51 424.3 168.542 421.04C167.573 417.78 164.633 415.553 161.304 415.557Z"/><path fill="#fff" fill-opacity=".2" d="M161.304 415.557C159.558 415.554 157.866 416.173 156.518 417.306C158.269 418.775 159.285 420.971 159.285 423.288C159.285 425.605 158.269 427.8 156.518 429.269C159.092 431.43 162.745 431.613 165.513 429.719C168.28 427.824 169.51 424.3 168.542 421.04C167.573 417.78 164.633 415.553 161.304 415.557Z"/><path fill="#2A84C6" fill-rule="evenodd" d="M410.057 258.839C420.965 258.839 429.807 267.888 429.807 279.05V279.101C429.807 290.263 420.965 299.312 410.057 299.312H380.932C379.844 299.312 378.777 299.222 377.737 299.049L372.094 304.626C371.94 304.778 371.735 304.863 371.522 304.863C371.068 304.863 370.699 304.486 370.699 304.021L370.699 296.391C364.994 292.847 361.182 286.43 361.182 279.101V279.05C361.182 267.888 370.025 258.839 380.932 258.839H410.057Z" clip-rule="evenodd"/><path fill="#fff" fill-opacity=".5" fill-rule="evenodd" d="M410.057 258.839C420.965 258.839 429.807 267.888 429.807 279.05V279.101C429.807 290.263 420.965 299.312 410.057 299.312H380.932C379.844 299.312 378.777 299.222 377.737 299.049L372.094 304.626C371.94 304.778 371.735 304.863 371.522 304.863C371.068 304.863 370.699 304.486 370.699 304.021L370.699 296.391C364.994 292.847 361.182 286.43 361.182 279.101V279.05C361.182 267.888 370.025 258.839 380.932 258.839H410.057Z" clip-rule="evenodd"/><g filter="url(#filter4_ddddd_114_5518)"><path fill="#fff" d="M405.267 210.419H446.854C462.436 210.419 475.068 223.345 475.068 239.291C475.068 255.236 462.436 268.163 446.854 268.163H405.267C389.685 268.163 377.053 255.236 377.053 239.291C377.053 223.345 389.685 210.419 405.267 210.419Z"/><path fill="#fff" fill-rule="evenodd" d="M461.475 259.764V274.879C461.475 275.544 460.949 276.082 460.3 276.082C459.995 276.082 459.703 275.961 459.483 275.745L448.629 265.028L461.475 259.764Z" clip-rule="evenodd"/></g><path fill="#1443BD" d="M444.944 242.899C442.428 242.899 440.388 240.812 440.388 238.238C440.388 235.663 442.428 233.576 444.944 233.576C447.459 233.576 449.499 235.663 449.499 238.238C449.499 240.812 447.459 242.899 444.944 242.899Z"/><path fill="#000" fill-opacity=".5" d="M444.944 242.899C442.428 242.899 440.388 240.812 440.388 238.238C440.388 235.663 442.428 233.576 444.944 233.576C447.459 233.576 449.499 235.663 449.499 238.238C449.499 240.812 447.459 242.899 444.944 242.899Z"/><path fill="#1443BD" d="M426.281 242.899C423.765 242.899 421.726 240.812 421.726 238.238C421.726 235.663 423.765 233.576 426.281 233.576C428.797 233.576 430.836 235.663 430.836 238.238C430.836 240.812 428.797 242.899 426.281 242.899Z"/><path fill="#000" fill-opacity=".5" d="M426.281 242.899C423.765 242.899 421.726 240.812 421.726 238.238C421.726 235.663 423.765 233.576 426.281 233.576C428.797 233.576 430.836 235.663 430.836 238.238C430.836 240.812 428.797 242.899 426.281 242.899Z"/><path fill="#1443BD" d="M407.178 242.899C404.662 242.899 402.622 240.812 402.622 238.238C402.622 235.663 404.662 233.576 407.178 233.576C409.693 233.576 411.733 235.663 411.733 238.238C411.733 240.812 409.693 242.899 407.178 242.899Z"/><path fill="#000" fill-opacity=".5" d="M407.178 242.899C404.662 242.899 402.622 240.812 402.622 238.238C402.622 235.663 404.662 233.576 407.178 233.576C409.693 233.576 411.733 235.663 411.733 238.238C411.733 240.812 409.693 242.899 407.178 242.899Z"/><path fill="#B7EE81" fill-rule="evenodd" d="M275.047 503.282H258.754V442.797C258.754 437.983 262.382 434.08 266.858 434.08H266.943C271.419 434.08 275.047 437.983 275.047 442.797V503.282Z" clip-rule="evenodd"/><path fill="#fff" fill-opacity=".2" fill-rule="evenodd" d="M275.047 503.282H258.754V442.797C258.754 437.983 262.382 434.08 266.858 434.08H266.943C271.419 434.08 275.047 437.983 275.047 442.797V503.282Z" clip-rule="evenodd"/><path fill="#B7EE81" fill-rule="evenodd" d="M283.149 518.087H266.808V486.503C266.808 481.816 270.357 478.016 274.734 478.016H275.224C279.601 478.016 283.149 481.816 283.149 486.503V518.087Z" clip-rule="evenodd"/><path fill="#000" fill-opacity=".35" fill-rule="evenodd" d="M283.149 518.087H266.808V486.503C266.808 481.816 270.357 478.016 274.734 478.016H275.224C279.601 478.016 283.149 481.816 283.149 486.503V518.087Z" clip-rule="evenodd"/><path fill="#B7EE81" fill-rule="evenodd" d="M261.144 503.25H244.695V468.911C244.695 464.197 248.252 460.376 252.641 460.376H253.199C257.587 460.376 261.144 464.197 261.144 468.911V503.25Z" clip-rule="evenodd"/><path fill="#fff" fill-opacity=".2" fill-rule="evenodd" d="M261.144 503.25H244.695V468.911C244.695 464.197 248.252 460.376 252.641 460.376H253.199C257.587 460.376 261.144 464.197 261.144 468.911V503.25Z" clip-rule="evenodd"/><path fill="#1443BD" fill-rule="evenodd" d="M279.791 553.609H245.268C243.576 553.609 241.188 551.182 241.188 549.368L238.125 504.715C238.125 502.901 239.496 501.431 241.188 501.431H283.979C285.67 501.431 287.041 502.901 287.041 504.715L282.767 549.368C282.767 551.182 281.482 553.609 279.791 553.609Z" clip-rule="evenodd"/><path fill="#000" fill-opacity=".2" fill-rule="evenodd" d="M279.791 553.609H245.268C243.576 553.609 241.188 551.182 241.188 549.368L238.125 504.715C238.125 502.901 239.496 501.431 241.188 501.431H283.979C285.67 501.431 287.041 502.901 287.041 504.715L282.767 549.368C282.767 551.182 281.482 553.609 279.791 553.609Z" clip-rule="evenodd"/><g clip-path="url(#clip0_114_5518)"><path fill="#F2F2F2" fill-rule="evenodd" d="M277.409 567.029L292.781 842.038H305.98L290.609 567.029H277.409Z" clip-rule="evenodd"/><path fill="#F2F2F2" fill-rule="evenodd" d="M235.09 567.029L219.078 842.038H232.827L248.839 567.029H235.09Z" clip-rule="evenodd"/><path fill="#2A84C6" fill-rule="evenodd" d="M224.089 580.641C216.124 580.641 209.667 574.606 209.667 567.163C209.667 559.72 216.124 553.684 224.089 553.684H303.215C311.179 553.684 317.636 559.72 317.636 567.163C317.636 574.606 311.179 580.641 303.215 580.641H224.089Z" clip-rule="evenodd"/><path fill="#fff" fill-opacity=".65" fill-rule="evenodd" d="M224.089 580.641C216.124 580.641 209.667 574.606 209.667 567.163C209.667 559.72 216.124 553.684 224.089 553.684H303.215C311.179 553.684 317.636 559.72 317.636 567.163C317.636 574.606 311.179 580.641 303.215 580.641H224.089Z" clip-rule="evenodd"/></g><g opacity=".8"><path fill="#B7EE81" fill-rule="evenodd" d="M653.604 124.218L700.168 159.433C701.069 158.518 702.369 157.995 703.766 158.112C706.232 158.32 708.066 160.444 707.863 162.856C707.66 165.269 705.497 167.056 703.032 166.849C701.373 166.71 700.001 165.703 699.342 164.325L642.735 183.099C642.896 183.615 642.961 184.168 642.913 184.738C642.71 187.15 640.547 188.938 638.082 188.731C635.617 188.523 633.783 186.399 633.986 183.987C634.182 181.662 636.197 179.917 638.549 179.979L648.582 126.134C646.552 125.575 645.141 123.669 645.321 121.538C645.524 119.126 647.687 117.338 650.152 117.545C652.617 117.753 654.451 119.876 654.248 122.289C654.188 122.998 653.96 123.652 653.604 124.218ZM698.935 162.105C698.921 162.278 698.917 162.45 698.923 162.619L665.615 166.695C665.165 164.917 663.6 163.532 661.634 163.367C661.206 163.331 660.787 163.355 660.386 163.432L651.281 126.052C651.969 125.816 652.583 125.418 653.073 124.901L699.624 160.106C699.243 160.688 698.997 161.367 698.935 162.105ZM659.544 163.681L650.429 126.256C650.11 126.3 649.781 126.31 649.447 126.285L639.423 180.085C640.241 180.265 640.968 180.661 641.545 181.204L657.322 169.8C656.925 169.077 656.729 168.237 656.803 167.36C656.945 165.67 658.049 164.287 659.544 163.681ZM657.813 170.515L642.118 181.86C642.219 182.002 642.312 182.149 642.396 182.302L699.049 163.513C699.045 163.499 699.042 163.486 699.039 163.472L665.741 167.546C665.749 167.732 665.746 167.921 665.73 168.111C665.527 170.523 663.364 172.311 660.899 172.104C659.646 171.998 658.556 171.398 657.813 170.515Z" clip-rule="evenodd"/><path fill="#fff" fill-opacity=".65" fill-rule="evenodd" d="M653.604 124.218L700.168 159.433C701.069 158.518 702.369 157.995 703.766 158.112C706.232 158.32 708.066 160.444 707.863 162.856C707.66 165.269 705.497 167.056 703.032 166.849C701.373 166.71 700.001 165.703 699.342 164.325L642.735 183.099C642.896 183.615 642.961 184.168 642.913 184.738C642.71 187.15 640.547 188.938 638.082 188.731C635.617 188.523 633.783 186.399 633.986 183.987C634.182 181.662 636.197 179.917 638.549 179.979L648.582 126.134C646.552 125.575 645.141 123.669 645.321 121.538C645.524 119.126 647.687 117.338 650.152 117.545C652.617 117.753 654.451 119.876 654.248 122.289C654.188 122.998 653.96 123.652 653.604 124.218ZM698.935 162.105C698.921 162.278 698.917 162.45 698.923 162.619L665.615 166.695C665.165 164.917 663.6 163.532 661.634 163.367C661.206 163.331 660.787 163.355 660.386 163.432L651.281 126.052C651.969 125.816 652.583 125.418 653.073 124.901L699.624 160.106C699.243 160.688 698.997 161.367 698.935 162.105ZM659.544 163.681L650.429 126.256C650.11 126.3 649.781 126.31 649.447 126.285L639.423 180.085C640.241 180.265 640.968 180.661 641.545 181.204L657.322 169.8C656.925 169.077 656.729 168.237 656.803 167.36C656.945 165.67 658.049 164.287 659.544 163.681ZM657.813 170.515L642.118 181.86C642.219 182.002 642.312 182.149 642.396 182.302L699.049 163.513C699.045 163.499 699.042 163.486 699.039 163.472L665.741 167.546C665.749 167.732 665.746 167.921 665.73 168.111C665.527 170.523 663.364 172.311 660.899 172.104C659.646 171.998 658.556 171.398 657.813 170.515Z" clip-rule="evenodd"/></g><g opacity=".8"><path fill="#B7EE81" fill-rule="evenodd" d="M413.72 15.7209L409.911 48.8571C410.623 49.035 411.258 49.5228 411.606 50.2444C412.219 51.5176 411.707 53.0367 410.46 53.6373C409.214 54.2378 407.707 53.6926 407.093 52.4193C406.68 51.563 406.777 50.5954 407.264 49.8709L381.592 27.4672C381.384 27.696 381.131 27.889 380.837 28.0308C379.591 28.6314 378.083 28.0861 377.469 26.8129C376.856 25.5396 377.368 24.0206 378.615 23.42C379.815 22.8413 381.259 23.3266 381.911 24.5019L411.32 13.8059C411.005 12.6446 411.533 11.3974 412.634 10.8669C413.88 10.2663 415.388 10.8116 416.001 12.0848C416.615 13.358 416.102 14.8771 414.856 15.4776C414.49 15.654 414.102 15.7316 413.72 15.7209ZM408.238 49.0265C408.149 49.0695 408.063 49.1173 407.982 49.1694L396.306 33.963C397.05 33.2255 397.277 32.0536 396.788 31.038C396.681 30.8169 396.548 30.6177 396.393 30.4427L412.143 15.1104C412.459 15.3801 412.833 15.567 413.23 15.6581L409.422 48.785C409.025 48.7663 408.619 48.8428 408.238 49.0265ZM396.026 30.1009L411.796 14.7499C411.681 14.6059 411.581 14.4473 411.497 14.2754L382.113 24.9626C382.262 25.4172 382.278 25.8898 382.178 26.3313L392.371 30.7841C392.611 30.3786 392.967 30.0386 393.42 29.8201C394.293 29.3995 395.294 29.5409 396.026 30.1009ZM392.161 31.2334L382.022 26.8039C381.982 26.895 381.936 26.9837 381.885 27.0694L407.578 49.4912C407.584 49.4854 407.59 49.4797 407.596 49.4739L395.924 34.2722C395.835 34.3304 395.741 34.3835 395.643 34.4309C394.397 35.0315 392.889 34.4862 392.275 33.213C391.963 32.5657 391.942 31.8548 392.161 31.2334Z" clip-rule="evenodd"/><path fill="#fff" fill-opacity=".65" fill-rule="evenodd" d="M413.72 15.7209L409.911 48.8571C410.623 49.035 411.258 49.5228 411.606 50.2444C412.219 51.5176 411.707 53.0367 410.46 53.6373C409.214 54.2378 407.707 53.6926 407.093 52.4193C406.68 51.563 406.777 50.5954 407.264 49.8709L381.592 27.4672C381.384 27.696 381.131 27.889 380.837 28.0308C379.591 28.6314 378.083 28.0861 377.469 26.8129C376.856 25.5396 377.368 24.0206 378.615 23.42C379.815 22.8413 381.259 23.3266 381.911 24.5019L411.32 13.8059C411.005 12.6446 411.533 11.3974 412.634 10.8669C413.88 10.2663 415.388 10.8116 416.001 12.0848C416.615 13.358 416.102 14.8771 414.856 15.4776C414.49 15.654 414.102 15.7316 413.72 15.7209ZM408.238 49.0265C408.149 49.0695 408.063 49.1173 407.982 49.1694L396.306 33.963C397.05 33.2255 397.277 32.0536 396.788 31.038C396.681 30.8169 396.548 30.6177 396.393 30.4427L412.143 15.1104C412.459 15.3801 412.833 15.567 413.23 15.6581L409.422 48.785C409.025 48.7663 408.619 48.8428 408.238 49.0265ZM396.026 30.1009L411.796 14.7499C411.681 14.6059 411.581 14.4473 411.497 14.2754L382.113 24.9626C382.262 25.4172 382.278 25.8898 382.178 26.3313L392.371 30.7841C392.611 30.3786 392.967 30.0386 393.42 29.8201C394.293 29.3995 395.294 29.5409 396.026 30.1009ZM392.161 31.2334L382.022 26.8039C381.982 26.895 381.936 26.9837 381.885 27.0694L407.578 49.4912C407.584 49.4854 407.59 49.4797 407.596 49.4739L395.924 34.2722C395.835 34.3304 395.741 34.3835 395.643 34.4309C394.397 35.0315 392.889 34.4862 392.275 33.213C391.963 32.5657 391.942 31.8548 392.161 31.2334Z" clip-rule="evenodd"/></g><path fill="#fff" d="M178 263C178 269.075 173.075 274 167 274C160.925 274 156 269.075 156 263C156 256.925 160.925 252 167 252C173.075 252 178 256.925 178 263Z"/><mask id="mask0_114_5518" style="mask-type:alpha" width="22" height="22" x="156" y="252" maskUnits="userSpaceOnUse"><circle cx="167" cy="263" r="11" fill="#C4C4C4"/></mask><g mask="url(#mask0_114_5518)"><circle cx="167" cy="263" r="3" fill="#1443BD"/><circle cx="167" cy="263" r="3" fill="#fff" fill-opacity=".5"/><circle cx="167" cy="273.5" r="7.5" fill="#1443BD"/><circle cx="167" cy="273.5" r="7.5" fill="#fff" fill-opacity=".5"/></g><defs><filter id="filter0_i_114_5518" width="30.462" height="36" x="225" y="254" color-interpolation-filters="sRGB" filterUnits="userSpaceOnUse"><feFlood flood-opacity="0" result="BackgroundImageFix"/><feBlend in="SourceGraphic" in2="BackgroundImageFix" mode="normal" result="shape"/><feColorMatrix in="SourceAlpha" result="hardAlpha" type="matrix" values="0 0 0 0 0 0 0 0 0 0 0 0 0 0 0 0 0 0 127 0"/><feOffset dy="-1"/><feComposite in2="hardAlpha" k2="-1" k3="1" operator="arithmetic"/><feColorMatrix type="matrix" values="0 0 0 0 0 0 0 0 0 0 0 0 0 0 0 0 0 0 0.12 0"/><feBlend in2="shape" mode="normal" result="effect1_innerShadow_114_5518"/></filter><filter id="filter1_i_114_5518" width="30.462" height="36" x="269" y="254" color-interpolation-filters="sRGB" filterUnits="userSpaceOnUse"><feFlood flood-opacity="0" result="BackgroundImageFix"/><feBlend in="SourceGraphic" in2="BackgroundImageFix" mode="normal" result="shape"/><feColorMatrix in="SourceAlpha" result="hardAlpha" type="matrix" values="0 0 0 0 0 0 0 0 0 0 0 0 0 0 0 0 0 0 127 0"/><feOffset dy="-1"/><feComposite in2="hardAlpha" k2="-1" k3="1" operator="arithmetic"/><feColorMatrix type="matrix" values="0 0 0 0 0 0 0 0 0 0 0 0 0 0 0 0 0 0 0.12 0"/><feBlend in2="shape" mode="normal" result="effect1_innerShadow_114_5518"/></filter><filter id="filter2_i_114_5518" width="30.462" height="36" x="313" y="254" color-interpolation-filters="sRGB" filterUnits="userSpaceOnUse"><feFlood flood-opacity="0" result="BackgroundImageFix"/><feBlend in="SourceGraphic" in2="BackgroundImageFix" mode="normal" result="shape"/><feColorMatrix in="SourceAlpha" result="hardAlpha" type="matrix" values="0 0 0 0 0 0 0 0 0 0 0 0 0 0 0 0 0 0 127 0"/><feOffset dy="-1"/><feComposite in2="hardAlpha" k2="-1" k3="1" operator="arithmetic"/><feColorMatrix type="matrix" values="0 0 0 0 0 0 0 0 0 0 0 0 0 0 0 0 0 0 0.12 0"/><feBlend in2="shape" mode="normal" result="effect1_innerShadow_114_5518"/></filter><filter id="filter3_ddddd_114_5518" width="245.781" height="217.194" x=".575" y="331.421" color-interpolation-filters="sRGB" filterUnits="userSpaceOnUse"><feFlood flood-opacity="0" result="BackgroundImageFix"/><feColorMatrix in="SourceAlpha" result="hardAlpha" type="matrix" values="0 0 0 0 0 0 0 0 0 0 0 0 0 0 0 0 0 0 127 0"/><feOffset dy="6"/><feGaussianBlur stdDeviation="4"/><feColorMatrix type="matrix" values="0 0 0 0 0.705882 0 0 0 0 0.831373 0 0 0 0 0.921569 0 0 0 0.12 0"/><feBlend in2="BackgroundImageFix" mode="normal" result="effect1_dropShadow_114_5518"/><feColorMatrix in="SourceAlpha" result="hardAlpha" type="matrix" values="0 0 0 0 0 0 0 0 0 0 0 0 0 0 0 0 0 0 127 0"/><feOffset dy="8"/><feGaussianBlur stdDeviation="12"/><feColorMatrix type="matrix" values="0 0 0 0 0.705882 0 0 0 0 0.831373 0 0 0 0 0.921569 0 0 0 0.08 0"/><feBlend in2="effect1_dropShadow_114_5518" mode="normal" result="effect2_dropShadow_114_5518"/><feColorMatrix in="SourceAlpha" result="hardAlpha" type="matrix" values="0 0 0 0 0 0 0 0 0 0 0 0 0 0 0 0 0 0 127 0"/><feOffset dy="16"/><feGaussianBlur stdDeviation="18"/><feColorMatrix type="matrix" values="0 0 0 0 0.705882 0 0 0 0 0.831373 0 0 0 0 0.921569 0 0 0 0.04 0"/><feBlend in2="effect2_dropShadow_114_5518" mode="normal" result="effect3_dropShadow_114_5518"/><feColorMatrix in="SourceAlpha" result="hardAlpha" type="matrix" values="0 0 0 0 0 0 0 0 0 0 0 0 0 0 0 0 0 0 127 0"/><feOffset dy="40"/><feGaussianBlur stdDeviation="35"/><feColorMatrix type="matrix" values="0 0 0 0 0.705882 0 0 0 0 0.831373 0 0 0 0 0.921569 0 0 0 0.04 0"/><feBlend in2="effect3_dropShadow_114_5518" mode="normal" result="effect4_dropShadow_114_5518"/><feColorMatrix in="SourceAlpha" result="hardAlpha" type="matrix" values="0 0 0 0 0 0 0 0 0 0 0 0 0 0 0 0 0 0 127 0"/><feOffset dy="2"/><feGaussianBlur stdDeviation="2"/><feColorMatrix type="matrix" values="0 0 0 0 0.87451 0 0 0 0 0.929412 0 0 0 0 0.964706 0 0 0 0.4 0"/><feBlend in2="effect4_dropShadow_114_5518" mode="normal" result="effect5_dropShadow_114_5518"/><feBlend in="SourceGraphic" in2="effect5_dropShadow_114_5518" mode="normal" result="shape"/></filter><filter id="filter4_ddddd_114_5518" width="238.015" height="205.664" x="307.053" y="180.419" color-interpolation-filters="sRGB" filterUnits="userSpaceOnUse"><feFlood flood-opacity="0" result="BackgroundImageFix"/><feColorMatrix in="SourceAlpha" result="hardAlpha" type="matrix" values="0 0 0 0 0 0 0 0 0 0 0 0 0 0 0 0 0 0 127 0"/><feOffset dy="6"/><feGaussianBlur stdDeviation="4"/><feColorMatrix type="matrix" values="0 0 0 0 0.705882 0 0 0 0 0.831373 0 0 0 0 0.921569 0 0 0 0.12 0"/><feBlend in2="BackgroundImageFix" mode="normal" result="effect1_dropShadow_114_5518"/><feColorMatrix in="SourceAlpha" result="hardAlpha" type="matrix" values="0 0 0 0 0 0 0 0 0 0 0 0 0 0 0 0 0 0 127 0"/><feOffset dy="8"/><feGaussianBlur stdDeviation="12"/><feColorMatrix type="matrix" values="0 0 0 0 0.705882 0 0 0 0 0.831373 0 0 0 0 0.921569 0 0 0 0.08 0"/><feBlend in2="effect1_dropShadow_114_5518" mode="normal" result="effect2_dropShadow_114_5518"/><feColorMatrix in="SourceAlpha" result="hardAlpha" type="matrix" values="0 0 0 0 0 0 0 0 0 0 0 0 0 0 0 0 0 0 127 0"/><feOffset dy="16"/><feGaussianBlur stdDeviation="18"/><feColorMatrix type="matrix" values="0 0 0 0 0.705882 0 0 0 0 0.831373 0 0 0 0 0.921569 0 0 0 0.04 0"/><feBlend in2="effect2_dropShadow_114_5518" mode="normal" result="effect3_dropShadow_114_5518"/><feColorMatrix in="SourceAlpha" result="hardAlpha" type="matrix" values="0 0 0 0 0 0 0 0 0 0 0 0 0 0 0 0 0 0 127 0"/><feOffset dy="40"/><feGaussianBlur stdDeviation="35"/><feColorMatrix type="matrix" values="0 0 0 0 0.705882 0 0 0 0 0.831373 0 0 0 0 0.921569 0 0 0 0.04 0"/><feBlend in2="effect3_dropShadow_114_5518" mode="normal" result="effect4_dropShadow_114_5518"/><feColorMatrix in="SourceAlpha" result="hardAlpha" type="matrix" values="0 0 0 0 0 0 0 0 0 0 0 0 0 0 0 0 0 0 127 0"/><feOffset dy="2"/><feGaussianBlur stdDeviation="2"/><feColorMatrix type="matrix" values="0 0 0 0 0.87451 0 0 0 0 0.929412 0 0 0 0 0.964706 0 0 0 0.4 0"/><feBlend in2="effect4_dropShadow_114_5518" mode="normal" result="effect5_dropShadow_114_5518"/><feBlend in="SourceGraphic" in2="effect5_dropShadow_114_5518" mode="normal" result="shape"/></filter><clipPath id="clip0_114_5518"><rect width="250.988" height="271.955" fill="#fff" transform="translate(138.097 528.188)"/></clipPath></defs></svg>