<svg width="1600" height="672" viewBox="0 0 1600 672" fill="none" xmlns="http://www.w3.org/2000/svg">
<path d="M1605.56 246.667C1614.44 164 1650 6.66666 1680.56 0.666656L1622.22 759.333H-22.2222V430.667C70.7407 505.111 326.47 642.667 578.333 642.667C798.333 642.667 879.444 605.576 950.556 570.667C1065 514.485 1103.89 488.273 1273.33 570.667C1480.56 671.43 1577.3 509.404 1605.56 246.667Z" fill="#B7EE81"/>
<path d="M1605.56 246.667C1614.44 164 1650 6.66666 1680.56 0.666656L1622.22 759.333H-22.2222V430.667C70.7407 505.111 326.47 642.667 578.333 642.667C798.333 642.667 879.444 605.576 950.556 570.667C1065 514.485 1103.89 488.273 1273.33 570.667C1480.56 671.43 1577.3 509.404 1605.56 246.667Z" fill="white" fill-opacity="0.65"/>
</svg>
